<svg width="2190" height="91" viewBox="0 0 2190 91" fill="none" xmlns="http://www.w3.org/2000/svg">
<g clip-path="url(#clip0_3139_3)">
<path d="M2054.86 53.2685V8.20551V-10.5948L138.54 -9.72956H135L135.142 59.0906H152.843C158.816 61.2559 164.606 63.9144 170.155 67.0398C176.846 70.5547 181.324 74.0696 183.678 77.5845C185.418 79.3473 186.612 81.5909 187.112 84.0375C187.349 86.4518 186.72 88.8716 185.342 90.851C196.211 93.8793 205.699 96.9075 214.054 99.8636C218.326 98.7581 222.379 97.6646 226.214 96.5831C242.96 90.1301 252.766 83.677 255.758 77.224L257.882 77.927C257.554 79.3824 256.953 80.7595 256.112 81.9827L260.519 83.641L274.026 84.9568L275.796 84.7405L278.238 85.8221C280.948 84.2454 283.492 82.3912 285.832 80.2883C286.38 79.7188 286.894 79.1169 287.372 78.4858C288.692 77.2735 289.853 75.8921 290.824 74.376L291.78 74.9168C293.656 74.0516 295.426 73.2044 297.09 72.3572C301.27 74.0732 305.348 76.0353 309.304 78.2334L314.296 77.1339C313.899 76.1194 313.395 75.1523 312.791 74.2498H324.403C336.599 83.4788 335.962 92.6716 323.66 101.846C324.279 102.351 324.863 102.874 325.43 103.379C351.893 96.6372 371.152 89.9137 384.039 83.1903C384.383 83.8298 384.685 84.4923 384.941 85.1731L389.261 86.3988C391.776 83.9752 393.389 80.7398 393.827 77.242C394.482 76.7734 395.102 76.2867 395.686 75.8L415.954 73.5469C418.452 75.6675 420.438 78.344 421.76 81.3698L436.133 80.3784C436.47 80.7569 436.771 81.1355 437.054 81.496C438.136 82.6022 439.114 83.8092 439.975 85.101C440.959 86.2105 441.831 87.4183 442.577 88.706C460.561 84.2178 475.731 79.6935 488.6 75.2773C496.86 77.2 504.69 79.1226 512.089 81.0453C518.512 84.4178 524.263 88.9777 529.047 94.4922C531.879 93.5549 534.588 92.5995 537.207 91.6622C547.226 85.768 553.263 79.8737 555.599 73.9795C556.856 74.7546 558.06 75.5477 559.139 76.3227L562.131 77.6206C567.441 83.641 568.893 89.6614 566.769 95.6458L569.565 97.6105C574.221 96.0423 578.593 94.4921 582.7 92.9239C582.993 93.8812 583.195 94.8652 583.301 95.862C586.232 98.0348 588.985 100.446 591.533 103.072L595.993 103.595C618.722 95.6458 634.6 87.7147 644.725 79.7836C648.849 81.2977 652.743 82.7938 656.478 84.3079L658.018 83.1723C658.287 84.2776 658.453 85.4061 658.514 86.5431C659.292 88.4027 659.787 90.3719 659.983 92.3832C678.747 88.7782 696.023 85.0289 712.202 81.3698L714.22 82.1269L719.53 80.775C719.53 80.4325 719.424 80.09 719.353 79.7475L722.681 79.2068C725.602 80.4866 728.381 81.7483 731.071 83.0101C730.249 85.0835 729.198 87.0549 727.938 88.8863L732.576 89.8777C734.877 88.9404 737.125 88.0752 739.285 87.0838L741.055 87.985C741.055 88.4176 741.055 88.8322 740.931 89.2648L742.506 88.7601L743.037 89.0485L745.356 87.8409L746.914 87.3362C746.923 87.2282 746.923 87.1196 746.914 87.0117L749.534 85.5516C749.233 84.7044 748.879 83.8392 748.489 82.974L752.685 80.9732C759.317 84.6106 765.672 88.75 771.696 93.3566L777.696 91.9686C783.007 89.8777 787.946 87.7868 792.619 85.6959C794.707 84.3259 796.672 82.956 798.531 81.5861C800.143 79.5894 801.582 77.4545 802.832 75.2052L841.545 74.1237C841.545 73.7632 841.545 73.4027 841.545 73.0422L851.688 72.916C851.609 71.8944 851.479 70.8777 851.298 69.8697L884.931 70.3925C899.817 75.5657 913.253 80.757 926.086 85.9302C928.015 84.5423 929.874 83.1363 931.662 81.7483C933.434 79.1734 935.036 76.4818 936.459 73.6911H938.636C940.375 76.3919 941.93 79.2104 943.292 82.1269C944.885 83.7131 946.407 85.3173 947.858 86.9035L998.378 82.5955C1000.15 80.3604 1001.92 78.1253 1003.51 75.8901C1003.67 75.4936 1003.81 75.1151 1003.95 74.7365L1028.74 76.3949C1026.97 78.1974 1025.2 79.8376 1023.43 81.55C1025.09 83.3526 1026.68 85.1551 1028.26 86.9576C1029.05 87.7687 1029.83 88.5979 1030.61 89.4091L1035.27 93.8613C1045.89 90.2562 1056.03 86.6512 1066.09 83.0462L1071.93 84.344C1072.85 82.8839 1073.7 81.4059 1074.65 79.9458L1082.09 77.242L1093.91 79.4411L1099.35 86.3087L1104.51 90.13L1119.37 84.1997L1122.02 84.6865L1123.44 82.5594C1129.23 80.2342 1135.03 77.927 1140.91 75.6017L1143.17 77.6386C1147.78 76.1245 1152.4 74.6284 1157.09 73.1323C1157.35 74.5022 1157.64 75.8721 1157.95 77.2601L1172.79 77.7107C1173.8 78.8463 1174.81 79.9999 1175.85 81.1535L1184.01 78.7381C1185.67 81.8385 1187.55 84.9568 1189.57 88.0572C1191.45 89.5713 1193.39 91.0674 1195.39 92.5815C1211.98 90.4726 1228.46 88.3456 1244.96 86.2186C1246.34 83.6441 1247.86 81.1525 1249.52 78.7561C1249.86 77.909 1250.23 77.0618 1250.64 76.2326V76.3408L1269.6 76.2146L1298.43 77.6206C1314.98 82.5775 1332.52 87.5525 1351.82 92.5274C1352.68 90.562 1353.69 88.6642 1354.83 86.8494V86.7413C1362.09 92.5399 1369.85 97.6446 1378.03 101.991L1384.21 102.982C1388.86 95.9407 1394.62 89.7337 1401.26 84.6143C1408.85 87.4623 1416.99 90.3103 1425.79 93.1583C1426.38 92.6536 1426.96 92.1669 1427.56 91.6802C1429.77 90.6348 1432.04 89.6073 1434.38 88.5799C1436.22 83.9538 1438.95 79.7495 1442.41 76.2146C1442.59 76.5571 1442.78 76.8815 1442.98 77.224C1452.42 75.794 1462.01 74.37 1471.76 72.952L1480.12 73.2044C1480.35 72.7177 1480.61 72.213 1480.88 71.7263L1487.96 72.2671C1488.4 73.56 1488.94 74.8139 1489.59 76.0163L1495.94 75.1691C1500.3 82.7037 1509.18 90.2202 1523.22 97.7547C1525.83 98.5719 1528.5 99.383 1531.24 100.188C1540.5 92.9367 1550.61 86.8821 1561.33 82.1629C1571.06 86.591 1581.01 90.4899 1591.14 93.8432C1592.31 93.2664 1593.49 92.6896 1594.68 92.0407C1596.13 90.8871 1597.72 89.7335 1599.42 88.5799C1600.41 87.5164 1601.53 86.4349 1602.75 85.3534C1604.42 83.706 1606.19 82.1763 1608.06 80.775C1609.52 78.0506 1611.4 75.5852 1613.64 73.4748C1622.38 72.5014 1631.23 71.522 1640.19 70.5367C1640.47 70.1401 1640.79 69.7435 1641.11 69.347H1641.38C1644.72 72.2144 1648.32 74.7664 1652.12 76.9716L1657.43 75.8541C1658.92 74.7185 1660.56 73.6009 1662.35 72.4653L1663.01 72.934C1662.95 75.3687 1663.51 77.7767 1664.63 79.9278C1671.72 78.9063 1678.86 77.8789 1686.07 76.8455C1687.66 79.0092 1689.51 80.9647 1691.58 82.6676C1692.48 83.4067 1693.45 84.1277 1694.5 84.8667C1697 86.501 1699.82 88.1473 1702.96 89.8056C1708.73 87.228 1715.19 84.6684 1722.43 82.0908C1731.02 83.9054 1740.05 85.7079 1749.53 87.4984C1750.84 86.9757 1752.2 86.4529 1753.58 85.9482C1754.75 82.6821 1756.71 79.7723 1759.28 77.4944C1760.79 80.6449 1762.98 83.4106 1765.67 85.5877C1768.76 87.5825 1771.97 89.3882 1775.27 90.9953C1791.41 92.3171 1807.9 93.633 1824.72 94.9428C1824.55 93.6901 1824.58 92.4158 1824.83 91.1755C1824.23 88.6637 1824.51 86.0177 1825.63 83.695C1832.11 84.9808 1838.84 86.2606 1845.84 87.5344C1845.3 85.3936 1845.45 83.1346 1846.25 81.0814C1847.49 81.8024 1848.8 82.5234 1850.2 83.2444C1852.29 84.1096 1854.48 85.047 1856.78 85.8761C1861.96 82.7417 1867.37 80.0294 1872.96 77.7648C1873.17 78.4803 1873.44 79.1744 1873.77 79.8377L1894.5 77.4043C1894.61 77.6927 1894.7 77.9991 1894.82 78.3055L1924.79 81.0634C1925.01 84.533 1926.57 87.7732 1929.13 90.076L1935.98 91.4098C1942.7 88.5618 1950.6 85.7139 1959.82 82.8479C1960.97 80.9546 1962.41 79.2626 1964.09 77.8369C1964.4 77.381 1964.74 76.9418 1965.1 76.521L1968.88 76.2687C1969.43 74.2589 1970.43 72.4071 1971.8 70.8611C1973.1 69.9959 1974.49 69.0586 1976.02 68.2835L2012.38 67.2921C2015.42 65.3869 2018.58 63.6888 2021.85 62.209L2031.92 61.8305C2034.52 60.6408 2037.39 59.4692 2040.5 58.2254H2054.95L2054.86 53.2685Z" fill="white"/>
</g>
<defs>
<clipPath id="clip0_3139_3">
<rect width="2190" height="91.0001" fill="white"/>
</clipPath>
</defs>
</svg>
