<?xml version="1.0" encoding="UTF-8"?>
<svg id="Layer_2" xmlns="http://www.w3.org/2000/svg" viewBox="0 0 595.28 596.3">
  <path d="M435.24,355.19c-2.98,0-5.4,2.42-5.4,5.41s2.42,5.4,5.4,5.4c.61,0,1.19-.12,1.74-.31,1.06-2.59,2.02-5.2,2.9-7.84-.94-1.59-2.65-2.66-4.63-2.66Z"/>
  <path d="M420.1,334.33c-1.71,0-3.39-.05-5.04-.17-5.01-.11-9.33-.88-12.96-2.31l-.17-.08c.33,5.17,1.07,10.32,2.23,15.44.99,5.12,2.23,10.07,3.72,14.86,1.21,3.36,2.39,6.22,3.55,8.59.44.94.8,1.76,1.07,2.48.61,1.27.94,2.18.99,2.72.05.55.08.91.08,1.07,0,.83-.22,1.73-.66,2.72-1.21,2.7-3.38,5.42-6.52,8.17-3.08,2.53-6.47,4.13-10.16,4.79-1.43.22-2.81.33-4.13.33-2.15,0-4.16-.28-6.03-.83-2.92-.88-5.23-1.95-6.94-3.22-.83-.55-1.62-1.32-2.39-2.31-.77-.99-1.68-2.67-2.73-5.04-2.59-5.39-4.98-12.55-7.18-21.47-1.38-6.22-2.06-13.04-2.06-20.47,0-2.04.05-4.16.16-6.36.33-8.97,1.39-18.75,3.18-29.35,1.79-10.6,4.69-19.94,8.71-28.03,3.47-6.49,7.15-11.15,11.06-13.95,3.69-2.64,7.26-3.96,10.73-3.96,1.98-.11,3.99-.16,6.03-.16,5.89,0,12.05.41,18.49,1.24,8.7,1.1,16.4,3.52,23.12,7.26.21.13.39.27.6.4-1.15-7.93-3.11-13.95-7.55-19.95-10.49-14.18-27.03-17.91-72.63-17.24-.66-27.59-28.97-49.67-60.98-49.38-33.71.3-62.44,25.31-59.38,54.58-43.36,3.08-57.91,7.66-71.78,21.19-22.37,21.82-25.36,49.7-25.83,54.87-1.9,21.06,4.43,41.3,15.32,58.47-.78-2.59-1.49-5.45-2.12-8.58-1.71-9.47-2.56-19.73-2.56-30.8,0-2.86.06-5.75.17-8.67.77-14.09,2.28-25.4,4.54-33.93.94-3.85,2.05-6.87,3.34-9.04,1.29-2.17,3.1-4,5.41-5.49,2.36-1.6,5.25-2.92,8.67-3.96,2.81-.88,5.78-1.32,8.92-1.32.66,0,1.32.03,1.98.08h.25c3.41-.83,6.71-1.38,9.91-1.65,2.2-.22,4.46-.33,6.77-.33,1.16,0,2.31.03,3.47.08,4.24.17,8.56.47,12.96.91,3.85.39,7.38,1.21,10.57,2.48,3.58,1.38,6.8,3.41,9.66,6.11,2.31,2.51,3.93,4.97,4.94,7.39,1.65-4.2,3.72-8.33,6.29-12.38,5.5-8.67,12.74-14.24,21.71-16.72,1.93-.5,3.74-.74,5.45-.74,2.81,0,5.5.92,8.09,2.77,2.59,1.84,4.65,4.83,6.19,8.96,1.54,4.13,2.53,8.39,2.97,12.8.44,4.02.66,7.49.66,10.4,0,.33-.03,1.38-.08,3.14l-.08,2.56.74-6.19c.44-4.07,1.4-8.96,2.89-14.65,1.49-5.7,3.7-11.16,6.65-16.39,2.94-5.23,6.87-9.14,11.77-11.72,2.64-1.37,5.64-2.06,9-2.06,2.86,0,5.97.5,9.33,1.49,7.32,2.59,12.84,8.38,16.55,17.38,3.72,9,5.96,19.69,6.73,32.08.27,4.24.41,8.5.41,12.8,0,8.26-.62,17.7-1.86,28.32-1.24,10.62-3.39,21.1-6.44,31.41-3.05,10.32-6.56,17.9-10.53,22.75-4.9,5.61-9.52,8.94-13.87,9.99-1.54.38-3.05.58-4.54.58-2.59,0-5.34-.77-8.26-2.31-2.92-1.54-5.61-3.87-8.09-6.98s-4.29-6.01-5.45-8.71c-.66-1.71-.99-3.5-.99-5.37,0-.99.18-2.5.54-4.54.36-2.04,1.16-4.43,2.39-7.18,1.24-2.75,2.44-5.01,3.59-6.77l1.73-2.64c4.4-8.2,7.32-15.82,8.75-22.87,1.21-5.78,1.82-10.95,1.82-15.52,0-1.04-.1-3.14-.29-6.27-.19-3.14-.73-6.22-1.61-9.25l-1.32-4.46c-.55,13.87-1.68,24.76-3.38,32.65-1.71,7.9-3.84,13.65-6.4,17.25-2.56,3.61-5.42,5.94-8.59,7.02-3.17,1.07-6.48,1.75-9.95,2.02-.28.06-.55.08-.83.08-2.31,0-4.17-1.16-5.57-3.47-1.4-2.31-2.38-5.37-2.93-9.16-.55-3.8-.83-7.62-.83-11.48v-2.23c0-2.92.08-5.45.25-7.6l.25-4.04c-1.82,2.92-2.92,7.26-3.3,13.04-.17,2.7-.25,5.42-.25,8.17,0,3.19.15,7.17.45,11.93.3,4.76.73,9.37,1.28,13.83l.83,6.77-2.15,1.07c-1.43.77-3.33,1.49-5.7,2.15-1.71.44-3.52.66-5.45.66-.72,0-1.96-.08-3.72-.25-1.76-.17-3.99-1.18-6.69-3.06-2.7-1.87-5.13-4.95-7.31-9.25-2.17-4.29-3.81-10.18-4.91-17.67-1.21-8.37-1.82-16.37-1.82-24.02,0-5.03.44-11.09,1.27-18.1-1.54,1.31-3.29,2.31-5.31,2.91-1.32.28-2.62.41-3.88.41-1.87,0-3.66-.3-5.37-.91-1.05-.33-2.04-.66-2.97-.99-1.38-.55-3.03-1.1-4.95-1.65-3.19-.77-6.85-1.16-10.98-1.16h-2.23c-3.69.33-7.05.94-10.07,1.82l-.17.33c-1.05,3.63-1.6,7.29-1.65,10.98.94-.22,1.93-.41,2.97-.58,3.14-.66,6.36-1.21,9.66-1.65,1.6-.22,3.14-.33,4.62-.33,1.26,0,2.5.08,3.71.25,2.86.39,5.59,1.32,8.17,2.81,2.48,1.65,4.29,3.41,5.45,5.28.55.82.96,1.61,1.24,2.35.27.74.44,1.61.5,2.6.11.72.17,1.46.17,2.23,0,1.54-.25,3.19-.74,4.95-.99,2.59-2.64,4.54-4.95,5.86-1.93.88-3.83,1.32-5.7,1.32-.39,0-.77-.03-1.16-.08-.83,0-1.62-.05-2.4-.17-1.1-.17-2.42-.28-3.96-.33h-.49c-2.81,0-5.94.47-9.41,1.4-1.65.55-3.22,1.18-4.71,1.9l.83,4.29c.71,3.47,1.35,6.91,1.9,10.32,4.24-.55,7.84-1.43,10.82-2.64,1.87-.71,3.44-1.43,4.71-2.15.94-.5,1.9-.96,2.89-1.4,2.2-1.1,4.65-1.65,7.35-1.65.55,0,1.13.03,1.73.08,3.47.55,6.38,2.2,8.75,4.95,2.15,2.92,3.49,5.78,4.04,8.59.33,1.27.51,2.42.54,3.47.03,1.05-.12,2.2-.45,3.47-.55,2.81-1.98,5.81-4.29,9-2.48,3.03-5.42,5.42-8.83,7.18-3.03,1.65-6.44,2.89-10.24,3.71-4.29,1.05-8.53,1.87-12.72,2.48-3.52.6-6.91.93-10.15.99-.83.05-1.68.08-2.56.08-3.08,0-6.19-.25-9.33-.74-.83-.11-1.62-.25-2.39-.41l-1.65-.17c-.09,0-.17-.04-.26-.05,9.4,8.85,20.01,15.95,30.91,20.6,16.57,7.07,21.73,3.27,91.85,1.11,80.4-2.47,85.54,2.09,100.2-7.24,11.84-7.53,20.49-18.15,26.81-30.02-5.78,2.39-12.35-3.09-10.24-9.58l.53-1.62-1.38-1c-6.07-4.41-2.95-14.02,4.55-14.02h1.71l.53-1.62c2.32-7.14,12.42-7.14,14.74,0l.08.26c1.66-6.36,2.88-12.68,3.78-18.76-4.09,1.78-8.74,3.1-13.99,3.91-4.29.55-8.42.83-12.38.83ZM305.19,231.65c-11.16.49-21.25.94-30.41,1.4-.73-17.43,15.97-30.81,31.89-30.89,15.19-.07,31.19,11.98,32.24,28.11-10.14.37-21.34.84-33.73,1.38Z"/>
  <path d="M415.56,287.68h-.41c-1.1,2.48-2.34,4.93-3.72,7.35-.88,1.65-1.73,3.3-2.56,4.95,2.75,1.49,5.04,2.23,6.85,2.23.33,0,.66-.03.99-.08,2.81-.17,5.17-1.07,7.1-2.73,2.04-2.09,3.05-4.1,3.05-6.03s-1.1-3.27-3.3-4.21c-2.37-.88-5.04-1.37-8.01-1.49Z"/>
  <path d="M270.44,294.52c2.29,7.06,12.28,7.06,14.58,0,7.42,0,10.51-9.5,4.5-13.86,2.29-7.06-5.79-12.93-11.79-8.57-6.01-4.36-14.09,1.51-11.79,8.57-6.01,4.36-2.92,13.86,4.5,13.86ZM274.8,280.45c2.23-1.62,5.35-1.12,6.97,1.1,1.62,2.23,1.13,5.35-1.1,6.97-2.23,1.62-5.35,1.13-6.97-1.1-1.62-2.23-1.13-5.35,1.1-6.97Z"/>
</svg>