<svg width="293" height="270" viewBox="0 0 293 270" fill="none" xmlns="http://www.w3.org/2000/svg">
<path d="M120.064 95.4941C120.108 95.6435 120.226 95.6933 120.413 95.648C120.625 95.5937 120.733 95.5665 120.945 95.5122C121.757 95.3084 122.141 94.9145 121.944 94.2217C121.752 93.5561 121.658 93.221 121.466 92.5509C121.299 91.9668 120.841 91.7993 120.093 91.9849C119.877 92.0393 119.567 92.1479 119.36 92.2113C119.178 92.2656 119.089 92.3426 119.133 92.492C119.503 93.6965 119.69 94.2942 120.059 95.4986L120.064 95.4941Z" fill="white"/>
<path d="M177.46 126.171C177.415 125.587 177.371 125.464 177.243 125.446C177.189 125.437 177.164 125.437 177.11 125.428C176.982 125.41 176.938 125.523 176.894 126.098C176.485 135.534 176.077 144.966 175.668 154.402C175.624 155.57 175.624 155.919 175.624 156.037C175.624 156.503 175.712 156.616 175.801 156.616C176.918 156.589 177.479 156.571 178.592 156.539C178.68 156.539 178.72 156.422 178.72 155.96C178.72 155.847 178.72 155.503 178.675 154.352C178.267 144.957 177.858 135.566 177.455 126.171H177.46Z" fill="white"/>
<path d="M186.92 92.8994C186.25 92.7092 185.748 92.8179 185.537 93.488C184.744 95.9603 184.346 97.1964 183.553 99.6641C183.337 100.334 183.671 100.647 184.287 100.819C184.902 100.991 185.399 100.896 185.62 100.248C186.467 97.7941 186.89 96.5625 187.732 94.1083C187.963 93.4427 187.584 93.0895 186.92 92.8994Z" fill="white"/>
<path d="M206.825 106.094C206.869 106.116 206.899 106.107 206.938 106.039C206.948 106.021 206.977 105.971 207.061 105.79C207.814 104.011 208.183 103.119 208.912 101.326C208.941 101.231 208.926 101.199 208.862 101.167C208.833 101.154 208.823 101.149 208.794 101.136C208.725 101.104 208.695 101.108 208.621 101.181C207.396 102.725 206.79 103.499 205.584 105.057C205.461 105.22 205.432 105.27 205.422 105.288C205.383 105.356 205.417 105.396 205.456 105.415C206.003 105.682 206.278 105.818 206.82 106.094H206.825Z" fill="white"/>
<path d="M114.172 128.285C113.832 128.349 113.365 128.57 113.025 128.72C112.754 128.838 112.518 129.136 112.518 129.979V149.24C112.518 149.978 112.705 150.354 113.025 150.395C113.36 150.44 113.832 150.603 114.172 150.603C115.575 150.599 116.259 149.077 116.259 145.709V132.79C116.259 129.426 115.575 128.023 114.172 128.29V128.285Z" fill="white"/>
<path d="M133.831 125.342C133.786 124.749 133.742 124.631 133.609 124.645C133.555 124.649 133.53 124.654 133.476 124.658C133.343 124.672 133.299 124.794 133.255 125.396C132.846 135.086 132.433 144.776 132.024 154.466C131.98 155.652 131.98 156.005 131.98 156.123C131.98 156.598 132.069 156.721 132.157 156.721C133.284 156.743 133.845 156.757 134.978 156.775C135.066 156.775 135.11 156.657 135.11 156.177C135.11 156.06 135.11 155.697 135.066 154.497C134.658 144.78 134.244 135.064 133.831 125.342Z" fill="white"/>
<path d="M109.407 99.2475C109.462 99.3743 109.565 99.4105 109.762 99.3471C109.959 99.2882 110.205 99.2294 110.387 99.166C111.13 98.9034 111.391 98.5276 111.165 97.9616L110.288 95.7972C110.062 95.2312 109.58 95.1044 108.812 95.3761C108.625 95.444 108.384 95.5527 108.197 95.6387C108.014 95.7248 107.941 95.7927 108 95.9376C108.566 97.2597 108.846 97.9208 109.412 99.243L109.407 99.2475Z" fill="white"/>
<path d="M74.574 123.3C75.8538 122.123 75.8538 120.203 74.574 119.021C73.9539 118.45 73.127 118.134 72.2508 118.134C71.3747 118.134 70.5478 118.45 69.9276 119.021C68.6479 120.198 68.6479 122.118 69.9276 123.3C70.5675 123.889 71.4092 124.183 72.2508 124.183C73.0925 124.183 73.9342 123.889 74.574 123.3Z" fill="white"/>
<path d="M172.936 98.2197C173.123 98.265 173.404 98.3238 173.63 98.3646C174.349 98.4959 174.767 98.3012 174.91 97.6945C175.496 95.1452 175.786 93.8684 176.372 91.3146C176.515 90.6898 176.185 90.3637 175.407 90.2189C175.166 90.1736 174.871 90.1192 174.649 90.1011C174.452 90.083 174.344 90.1057 174.31 90.2777C173.67 93.3431 173.355 94.8736 172.715 97.939C172.68 98.111 172.769 98.1744 172.936 98.2152V98.2197Z" fill="white"/>
<path d="M242.057 126.406C243.287 123.603 242.997 120.524 241.417 118.02C241.535 115.132 240.221 112.288 237.706 110.346C235.85 108.915 233.522 108.118 231.13 108.095C231.44 105.664 230.519 103.142 228.423 101.213C227.409 100.28 226.311 99.4513 225.071 98.6771C223.146 97.4817 221.089 96.7165 219.026 96.4176C218.141 95.2132 216.915 94.1627 215.384 93.3749C214.178 92.7545 213.543 92.4421 212.288 91.8399C210.757 91.1019 209.168 90.7215 207.573 90.6989C206.096 89.2545 204.132 88.05 201.666 87.1128C200.018 86.4879 198.442 86.0487 196.858 85.768C196.242 85.6593 195.627 85.605 195.027 85.6004C193.786 84.7039 192.182 83.8889 190.109 83.3048C188.559 82.8701 187.033 82.6482 185.576 82.6482C184.882 82.6482 184.213 82.7116 183.558 82.8067C181.767 81.5977 179.507 80.7374 176.785 80.253C175.88 80.0899 174.073 79.8183 172.164 79.8183H171.977C171.849 79.8183 171.73 79.8319 171.607 79.8364C170.884 79.5738 170.116 79.3791 169.309 79.2749C166.853 78.9716 165.578 78.8402 163.132 78.6455C162.817 78.6184 162.511 78.6093 162.216 78.6093C161.222 78.6093 160.277 78.7452 159.391 78.9897C157.644 78.3874 155.64 78.0705 153.381 78.0479H153.076C152.165 78.0479 150.374 78.0931 148.567 78.4146C148.361 78.4508 148.159 78.5006 147.952 78.5459C147.273 78.4101 146.569 78.3286 145.836 78.3286C145.663 78.3286 145.491 78.3286 145.314 78.3422C144.915 78.3603 144.713 78.3693 144.32 78.392C143.32 78.4418 142.365 78.6229 141.475 78.9172C140.884 78.8176 140.274 78.7633 139.653 78.7633C139.274 78.7633 138.886 78.7814 138.502 78.8176C137.729 78.8901 137.345 78.9308 136.567 79.0123C135.809 79.0938 135.091 79.2568 134.402 79.4742C134.165 79.456 133.929 79.447 133.693 79.447C133.201 79.447 132.694 79.4832 132.197 79.5511C129.75 79.8907 128.49 80.0945 126.059 80.5427C124.784 80.7782 123.612 81.2174 122.589 81.8332C122.239 81.806 121.885 81.7924 121.521 81.7924C119.995 81.7924 118.346 82.0188 116.623 82.4581C114.91 82.8973 113.38 83.4406 111.952 84.1153C111.381 84.3869 110.855 84.6994 110.372 85.0435C108.497 85.0661 106.494 85.451 104.402 86.1981C102.777 86.7777 101.276 87.475 99.9374 88.2628C99.7454 88.376 99.5633 88.4983 99.3861 88.6206C98.4952 88.7564 97.6142 88.9918 96.7528 89.3631C95.7143 89.8069 95.1975 90.0333 94.1737 90.4951C93.0957 90.9841 92.1507 91.5999 91.3681 92.3153C90.2656 92.5055 89.1827 92.8723 88.1245 93.4156C87.1056 93.9363 86.6035 94.2035 85.5945 94.7468C84.9104 95.1181 84.2951 95.5528 83.7438 96.0328C83.0301 96.2592 82.3361 96.5671 81.6716 96.9519C79.501 98.2197 78.3985 98.9035 76.2918 100.271C74.1261 101.679 72.7135 103.689 72.3099 105.935C72.1869 106.628 72.1721 107.325 72.241 108.014C71.4289 107.823 70.597 107.719 69.7554 107.719C67.8013 107.719 65.8866 108.226 64.2131 109.191C61.4273 110.794 59.6996 113.443 59.3797 116.318C57.4404 118.591 56.6824 121.606 57.4798 124.536C58.2771 127.47 60.4822 129.802 63.3567 130.97C64.0015 131.853 64.8038 132.627 65.7193 133.261C64.2771 135.299 63.4896 137.653 63.4896 140.031V162.104C63.4896 165.554 65.1336 168.946 67.9982 171.409C71.3698 174.307 73.186 175.724 76.8234 178.301C78.0589 179.174 79.2746 179.645 80.3525 179.894C81.1794 180.981 82.1885 181.9 83.3747 182.629C83.9801 183.001 84.2803 183.186 84.8956 183.548C86.4264 184.459 88.1294 184.957 89.8423 184.988C90.8267 186.342 92.1901 187.592 94.0802 188.511C95.2959 189.104 95.9308 189.403 97.1515 189.955C98.4706 190.558 99.8586 190.861 101.276 190.861C101.355 190.861 101.444 190.861 101.532 190.861C102.733 192.106 104.082 192.871 105.347 193.342C106.1 193.623 106.474 193.759 107.232 194.031C108.31 194.411 109.422 194.606 110.549 194.606C111.819 194.606 114.684 194.32 116.987 192.07C118.292 195.806 120.782 198.083 124.444 198.844C125.227 199.007 125.621 199.084 126.403 199.233C127.083 199.364 127.767 199.428 128.441 199.428C129.731 199.428 131.158 199.165 132.516 198.549C133.9 199.808 135.77 200.709 138.295 200.963C139.092 201.044 139.491 201.081 140.283 201.148C140.569 201.176 140.854 201.185 141.14 201.185C142.06 201.185 143.05 201.04 144.034 200.736C145.496 201.379 146.909 201.561 147.898 201.588C148.597 201.606 148.946 201.615 149.64 201.624C149.68 201.624 149.749 201.624 149.788 201.624C150.802 201.624 152.756 201.456 154.705 200.365C156.093 201.058 157.663 201.434 159.322 201.434C159.524 201.434 159.726 201.429 159.927 201.416C161.266 201.343 161.936 201.298 163.274 201.194C164.278 201.117 165.73 200.854 167.212 200.075C168.014 200.275 168.812 200.374 169.565 200.374C170.037 200.374 170.52 200.338 170.987 200.275C171.78 200.161 172.178 200.103 172.961 199.976C175.456 199.582 177.278 198.572 178.602 197.236C179.783 197.689 180.999 197.888 182.111 197.888C182.982 197.888 183.868 197.775 184.739 197.553C185.517 197.359 185.901 197.254 186.674 197.046C188.032 196.679 189.214 196.104 190.228 195.317C190.464 195.33 190.685 195.339 190.887 195.339C191.96 195.339 193.023 195.163 194.052 194.818C197.817 193.56 199.737 192.835 203.374 191.3C204.364 190.884 205.412 190.263 206.377 189.358C207.538 189.24 208.675 188.923 209.763 188.389C213.73 186.446 215.724 185.355 219.474 183.082C220.734 182.317 221.793 181.33 222.634 180.157C222.826 180.112 223.018 180.066 223.21 180.012C225.504 179.342 227.788 178.097 229.998 176.313C236.042 171.432 239.812 164.332 240.088 157.314C240.088 157.228 240.093 156.902 240.093 156.902C240.093 152.953 238.739 150.033 237.031 147.579C238.651 146.166 239.753 144.074 239.753 141.357V139.551C239.753 136.793 238.665 134.185 236.529 131.794C236.49 131.749 236.446 131.708 236.406 131.663C238.926 130.703 240.984 128.842 242.052 126.402L242.057 126.406ZM195.386 92.8406C196.355 93.0126 197.429 93.2934 198.689 93.7733C201.642 94.8917 203.827 96.6621 202.483 99.2974C202.198 99.8543 202.06 100.131 201.775 100.683C201.164 101.878 200.057 102.612 198.536 102.494C198.565 104.319 198.561 105.224 198.526 107.036C198.526 107.334 198.467 107.547 198.378 107.724C198.098 108.267 197.492 108.367 196.897 108.118C196.523 107.959 196.341 107.882 195.967 107.728C195.159 107.398 194.879 106.95 194.933 106.144C195.027 104.577 195.066 103.789 195.115 102.213C195.115 102.105 195.105 102.064 195.061 102.046C194.894 101.982 194.81 101.951 194.643 101.887C194.579 101.86 194.539 101.887 194.524 101.924C193.929 103.273 193.629 103.952 193.028 105.301C192.728 105.985 192.113 106.212 191.291 105.917C190.946 105.795 190.774 105.732 190.429 105.609C189.607 105.32 189.322 104.772 189.602 104.079C191.271 99.9132 192.103 97.8303 193.771 93.6647C194.042 92.99 194.446 92.6685 195.386 92.8315V92.8406ZM172.05 87.0177C173.025 87.0086 174.246 87.1309 175.294 87.321C178.661 87.9233 181.117 89.2545 180.231 92.5508C179.64 94.7559 179.34 95.8607 178.749 98.0703C177.863 101.367 175.353 101.539 172.4 101.013C171.479 100.85 170.441 100.588 169.639 100.316C168.861 100.054 168.698 99.6053 168.822 98.8763C169.555 94.5748 169.924 92.424 170.657 88.127C170.781 87.4161 171.1 87.0267 172.055 87.0177H172.05ZM150.044 85.4827C150.999 85.3152 152.219 85.2337 153.283 85.2473C156.699 85.2835 159.356 86.1891 159.125 89.5805C158.973 91.849 158.894 92.9855 158.741 95.254C158.515 98.6408 156.093 99.2295 153.096 99.1933C152.16 99.1842 151.092 99.0982 150.251 98.9623C149.434 98.831 149.192 98.419 149.173 97.6809C149.059 93.3296 149.005 91.1517 148.892 86.8003C148.872 86.0849 149.114 85.6457 150.044 85.4827ZM150.733 105.686C152.219 105.686 152.968 105.89 154.306 106.166L155.055 106.37C156.467 106.646 157.142 106.85 157.959 106.85C160.267 106.85 160.936 106.094 162.201 106.094C163.097 106.094 163.988 106.438 163.988 107.805V109.861C163.988 110.753 163.914 111.301 163.319 111.849C162.502 112.605 161.01 112.945 159.671 112.945C158.259 112.945 157.437 112.736 156.098 112.465L155.35 112.256C153.937 111.912 153.337 111.776 152.446 111.776C150.211 111.776 149.468 112.533 148.203 112.533C147.307 112.533 146.416 112.188 146.416 110.821V108.765C146.416 107.873 146.569 107.257 147.16 106.71C147.977 106.021 149.394 105.682 150.733 105.682V105.686ZM127.589 87.6018C129.888 87.1761 131.045 86.9905 133.358 86.669C134.185 86.5558 134.717 86.8592 134.82 87.5112C134.864 87.8101 134.889 87.9595 134.933 88.2628C135.032 88.9149 134.623 89.3405 133.816 89.4537C132.674 89.6122 132.103 89.6982 130.961 89.8838C130.764 89.9155 130.685 90.0061 130.715 90.16C130.868 90.9524 130.946 91.3509 131.104 92.1478C131.133 92.3018 131.242 92.3425 131.429 92.3108C132.295 92.1704 132.728 92.1025 133.599 91.9803C134.411 91.8625 134.928 92.1886 135.027 92.8225C135.076 93.1304 135.101 93.2843 135.15 93.5922C135.253 94.2442 134.869 94.6653 134.077 94.7831C133.23 94.9053 132.807 94.9687 131.965 95.1045C131.778 95.1362 131.699 95.2268 131.729 95.3807C131.901 96.2727 131.99 96.721 132.162 97.613C132.187 97.7488 132.295 97.8077 132.472 97.7805C133.53 97.6085 134.057 97.5315 135.12 97.3821C135.868 97.2779 136.361 97.6085 136.454 98.2424C136.498 98.5503 136.523 98.7042 136.572 99.0121C136.671 99.6642 136.306 100.081 135.583 100.185C133.545 100.47 132.531 100.633 130.508 101.004C129.676 101.158 129.12 100.832 128.953 100.112C127.924 95.6751 127.407 93.4518 126.379 89.0145C126.211 88.2945 126.64 87.7919 127.585 87.6154L127.589 87.6018ZM115.511 90.5223C116.387 90.1102 117.411 89.7299 118.715 89.3948C121.767 88.6115 124.626 88.779 125.33 91.618C125.478 92.2157 125.552 92.5146 125.699 93.1123C126.019 94.3982 125.65 95.6026 124.395 96.3678C125.626 97.7896 126.226 98.5095 127.398 99.9585C127.594 100.194 127.693 100.393 127.737 100.583C127.88 101.172 127.481 101.589 126.851 101.729C126.457 101.815 126.265 101.856 125.872 101.946C125.025 102.136 124.508 101.946 124.016 101.281C123.046 99.9902 122.554 99.3472 121.55 98.0749C121.476 97.9934 121.442 97.9617 121.398 97.9707C121.225 98.016 121.142 98.0386 120.969 98.0794C120.9 98.0975 120.891 98.1382 120.9 98.179C121.334 99.5827 121.55 100.284 121.983 101.688C122.2 102.399 121.875 102.924 121.038 103.151C120.684 103.246 120.512 103.296 120.157 103.395C119.32 103.631 118.73 103.359 118.484 102.657C117.012 98.428 116.279 96.3135 114.812 92.0889C114.576 91.4052 114.674 90.9207 115.526 90.5223H115.511ZM104.156 94.3212C104.987 93.8277 106.001 93.3432 107.222 92.9085C110.146 91.8625 113.035 91.781 114.034 94.5431C114.364 95.4487 114.526 95.9015 114.856 96.807C115.86 99.5691 113.798 100.964 111.711 101.693C111.381 101.806 110.992 101.905 110.574 101.992C111.061 103.133 111.307 103.703 111.795 104.844C112.09 105.528 111.814 106.085 111.022 106.384C110.672 106.515 110.495 106.583 110.146 106.719C109.334 107.031 108.713 106.814 108.393 106.139C106.479 102.064 105.524 100.026 103.609 95.9513C103.299 95.2902 103.348 94.8012 104.161 94.3212H104.156ZM69.4699 126.207L69.0663 124.704L67.3829 124.599C65.9998 124.513 65.2714 123.617 65.0548 122.806C64.8333 121.996 65.0203 120.891 66.1967 120.216L67.629 119.397L67.2156 117.894C66.876 116.657 67.5798 115.743 68.3477 115.299C68.7316 115.077 69.2189 114.923 69.7455 114.923C70.2722 114.923 70.8481 115.082 71.3796 115.498L72.6692 116.499L74.0966 115.675C75.2681 114.996 76.4297 115.331 77.1286 115.865C77.8226 116.404 78.3837 117.396 77.862 118.577L77.227 120.013L78.5215 121.004C79.5847 121.819 79.5995 122.942 79.2598 123.716C78.9202 124.491 78.0638 125.288 76.6807 125.197L74.9973 125.084L74.3723 126.524C73.8554 127.706 72.7037 128.063 71.798 128.009C70.8924 127.95 69.8046 127.447 69.4699 126.211V126.207ZM83.5076 134.239C83.5076 136.444 82.7939 137.957 81.5781 138.459C79.8505 139.175 79.0039 139.546 77.3304 140.311C77.0449 140.443 76.9022 140.714 76.9022 141.122V146.442C76.9022 146.85 77.0449 146.981 77.3304 146.927C78.6347 146.696 79.2894 146.587 80.6233 146.37C81.8685 146.166 82.5773 147.321 82.5773 149.399V151.921C82.5773 154.067 81.8685 155.172 80.6233 155C79.2894 154.819 78.6298 154.724 77.3304 154.534C77.0449 154.493 76.9022 154.674 76.9022 155.086V161.072C76.9022 161.43 77.0449 161.701 77.3304 161.833C79.0039 162.598 79.8554 162.969 81.5781 163.684C82.7939 164.192 83.5076 165.763 83.5076 167.904V170.499C83.5076 172.704 82.7939 173.46 81.5781 172.6C78.1721 170.187 76.5133 168.896 73.3189 166.148C72.0047 165.016 71.296 163.535 71.296 162.104V140.031C71.296 138.595 72.0047 137.155 73.3189 136.028C76.5183 133.289 78.1721 132.003 81.5781 129.594C82.7939 128.733 83.5076 129.494 83.5076 131.699V134.23V134.239ZM80.259 107.919C79.7865 107.321 79.9785 106.687 80.8005 106.153C82.7988 104.853 83.8127 104.228 85.8603 103.028C86.5937 102.598 87.2287 102.675 87.6077 103.232C87.7799 103.49 87.8685 103.617 88.0408 103.875C88.4198 104.437 88.2131 104.984 87.4994 105.401C86.4854 105.994 85.9834 106.298 84.9842 106.913C84.8119 107.017 84.7775 107.135 84.871 107.267C85.3632 107.937 85.6093 108.272 86.0966 108.937C86.1901 109.064 86.3082 109.06 86.4756 108.96C87.2336 108.489 87.6175 108.258 88.3853 107.805C89.104 107.38 89.7291 107.479 90.0982 108.023C90.2754 108.285 90.3689 108.417 90.5461 108.679C90.9251 109.236 90.7479 109.775 90.049 110.187C89.3008 110.631 88.9268 110.853 88.1884 111.31C88.026 111.41 87.9916 111.527 88.0851 111.654C88.6364 112.406 88.912 112.782 89.4682 113.538C89.5519 113.651 89.6749 113.664 89.8373 113.565C90.7627 112.994 91.2303 112.714 92.1704 112.161C92.8299 111.772 93.4403 111.885 93.8045 112.433C93.9817 112.696 94.0703 112.827 94.2475 113.094C94.6265 113.655 94.4641 114.181 93.8193 114.556C92.0178 115.611 91.1269 116.159 89.3698 117.305C88.6462 117.776 87.9768 117.699 87.5092 117.101C84.6101 113.429 83.1581 111.591 80.259 107.919ZM103.048 178.889C103.048 182.502 102.182 184.237 100.597 183.512C99.4403 182.987 98.8644 182.715 97.7225 182.163C96.1523 181.398 95.2418 179.632 94.9661 176.308C93.9916 165.917 92.9924 155.53 91.9292 145.147C91.8898 144.676 91.8111 144.604 91.693 144.622C91.6782 144.622 91.6683 144.622 91.6536 144.626C91.5748 144.635 91.4961 144.726 91.4961 144.961V174.158C91.4961 177.155 90.6347 178.414 89.1286 177.517C88.5576 177.178 88.2721 177.006 87.7061 176.657C86.2885 175.783 85.501 173.755 85.501 171.146V131.006C85.501 128.398 86.2541 126.46 87.7455 125.546C88.848 124.871 89.4042 124.541 90.5264 123.893C92.003 123.042 92.9136 123.757 93.2286 126.714C94.3016 136.97 95.3057 147.235 96.2852 157.495C96.3246 157.929 96.364 158.192 96.487 158.206C96.5363 158.21 96.5609 158.215 96.6052 158.219C96.6839 158.228 96.7233 158.147 96.7233 157.889V125.691C96.7233 122.394 97.56 120.144 99.14 119.401C99.7405 119.121 100.041 118.98 100.641 118.709C102.147 118.029 103.053 119.646 103.053 123.259V178.885L103.048 178.889ZM103.737 108.109C102.33 105.46 101.626 104.133 100.218 101.484C100.188 101.435 100.134 101.435 100.07 101.466C100.06 101.466 100.056 101.471 100.051 101.475C99.9817 101.507 99.9817 101.552 99.9915 101.675C100.454 103.368 100.695 104.21 101.188 105.895C101.365 106.465 101.153 106.8 100.607 107.058C100.051 107.321 99.775 107.452 99.2237 107.724C98.6823 107.991 98.259 107.959 97.8504 107.502C96.6199 106.175 95.9948 105.519 94.7397 104.206C94.656 104.115 94.6167 104.092 94.5477 104.124C94.5281 104.133 94.5231 104.138 94.5034 104.147C94.4591 104.169 94.4247 104.21 94.4592 104.26C96.0244 106.832 96.807 108.118 98.3722 110.694C98.761 111.337 98.5887 111.912 97.7914 112.338C97.4961 112.496 97.3484 112.573 97.058 112.732C96.2852 113.148 95.6306 113.017 95.2171 112.388C92.6675 108.507 91.3927 106.569 88.848 102.689C88.4247 102.041 88.6856 101.416 89.542 100.955C90.487 100.443 90.9645 100.194 91.9194 99.7004C92.6921 99.3019 93.5338 99.1706 94.0703 99.7864C95.67 101.602 96.4575 102.517 98.0178 104.36C98.0965 104.45 98.131 104.459 98.195 104.428C98.2196 104.414 98.2344 104.409 98.259 104.396C98.323 104.364 98.3377 104.337 98.2984 104.224C97.5404 101.996 97.1761 100.878 96.4624 98.6318C96.1917 97.8892 96.8119 97.3142 97.5994 96.9565C98.5641 96.5173 99.0514 96.3044 100.026 95.8879C100.917 95.5075 101.616 95.666 101.955 96.3588C103.973 100.493 104.983 102.562 106.996 106.696C107.325 107.366 107.06 107.946 106.272 108.276C105.967 108.408 105.814 108.471 105.509 108.607C104.707 108.955 104.077 108.77 103.722 108.104L103.737 108.109ZM123.199 145.672C123.022 150.784 123.416 166.691 114.644 166.025C114.034 165.98 113.286 165.641 112.523 165.228V181.855C112.523 185.853 111.632 187.886 110.033 187.316C109.329 187.067 108.974 186.935 108.27 186.677C106.641 186.071 105.77 183.553 105.77 179.817V123.603C105.77 119.967 106.183 117.64 107.724 116.273C109.299 114.878 111.199 113.696 113.32 112.967C123.342 109.512 123.022 127.601 123.194 131.677V145.668L123.199 145.672ZM140.997 193.994C140.254 193.931 139.88 193.895 139.137 193.822C137.409 193.65 136.479 191.957 136.257 186.279C136.05 181.855 135.844 177.427 135.637 173.003C135.593 172.518 135.548 172.396 135.416 172.387C133.914 172.288 133.166 172.233 131.67 172.111C131.581 172.102 131.493 172.215 131.493 172.69C131.271 177.001 131.055 181.312 130.833 185.622C130.612 191.142 129.691 192.523 127.983 192.197C127.25 192.056 126.881 191.984 126.147 191.83C124.666 191.522 123.711 189.358 123.711 184.68C123.711 183.997 123.755 183.318 123.8 182.643C124.946 161.104 126.078 139.56 127.196 118.016C127.457 112.745 128.722 109.92 130.745 109.58C132.974 109.204 134.096 109.041 136.341 108.765C138.374 108.516 139.708 111.065 139.973 116.513C141.12 139.302 142.257 162.091 143.394 184.88C143.438 185.74 143.483 186.351 143.483 187.085C143.483 192.097 142.503 194.117 140.997 193.99V193.994ZM143.212 98.3329C142.272 95.4894 141.78 94.0722 140.746 91.2467C140.712 91.1336 140.662 91.1154 140.589 91.1245C140.579 91.1245 140.574 91.1245 140.564 91.1245C140.515 91.1245 140.47 91.1517 140.475 91.2105C140.776 94.0676 140.928 95.4985 141.228 98.3556C141.307 99.0891 140.864 99.5555 139.998 99.6415C139.668 99.6732 139.506 99.6913 139.181 99.7275C138.364 99.8136 137.837 99.4513 137.739 98.7178C137.104 94.2171 136.789 91.9667 136.154 87.4614C136.05 86.7324 136.498 86.266 137.478 86.1574C138.201 86.0804 138.566 86.0442 139.289 85.9762C140.244 85.8857 140.854 86.1302 141.125 86.8501C142.169 89.671 142.666 91.0883 143.616 93.9273C143.645 94.0224 143.675 94.0812 143.744 94.0722C143.773 94.0722 143.788 94.0722 143.813 94.0676C143.857 94.0676 143.881 94.045 143.877 93.9861C143.66 91.1154 143.552 89.6801 143.335 86.8049C143.281 86.0713 143.778 85.6276 144.763 85.5733C145.137 85.5552 145.324 85.5461 145.698 85.528C146.633 85.4872 147.204 85.8766 147.233 86.6102C147.416 91.1471 147.509 93.4156 147.696 97.9526C147.726 98.6907 147.278 99.1299 146.411 99.1706C145.781 99.1978 145.466 99.2159 144.836 99.2521C143.97 99.3019 143.438 99.0529 143.217 98.3284L143.212 98.3329ZM165.278 187.216C165.278 191.386 164.347 193.899 162.62 194.031C161.36 194.13 160.73 194.171 159.465 194.239C157.732 194.334 156.708 192.695 156.398 188.47C155.251 174.583 154.11 160.701 152.968 146.813C152.923 146.143 152.835 146.03 152.702 146.03C152.682 146.03 152.677 146.03 152.658 146.03C152.569 146.03 152.48 146.143 152.48 146.474C152.48 160.234 152.48 173.99 152.48 187.75C152.48 191.988 151.501 194.456 149.763 194.429C149.104 194.42 148.774 194.411 148.114 194.397C146.466 194.352 145.535 191.862 145.535 187.637V122.607C145.535 118.383 146.426 116.001 148.159 115.956C149.443 115.924 150.083 115.915 151.368 115.91C153.061 115.906 154.085 117.599 154.439 121.842C155.581 135.697 156.723 149.548 157.865 163.404C157.909 163.961 157.954 164.291 158.087 164.291C158.141 164.291 158.165 164.291 158.219 164.291C158.308 164.291 158.352 164.178 158.352 163.847V122.621C158.352 118.401 159.288 116.101 161.02 116.214C161.68 116.259 162.004 116.282 162.664 116.331C164.308 116.458 165.278 118.863 165.278 123.033C165.278 144.427 165.278 165.822 165.278 187.212V187.216ZM166.267 99.9449C164.229 99.6913 163.205 99.5872 161.158 99.4242C160.316 99.3563 159.883 98.9035 159.942 98.1654C160.311 93.6375 160.493 91.3735 160.863 86.8456C160.922 86.1121 161.488 85.7363 162.443 85.8132C164.771 85.9989 165.932 86.1166 168.255 86.4064C169.082 86.5105 169.501 86.9407 169.397 87.5927L169.279 88.3398C169.176 88.9918 168.654 89.2907 167.842 89.1911C166.695 89.0507 166.124 88.9828 164.972 88.8696C164.776 88.8515 164.667 88.9194 164.653 89.0733C164.559 89.8748 164.51 90.2778 164.416 91.0792C164.397 91.2332 164.49 91.3011 164.682 91.3192C165.553 91.4097 165.991 91.455 166.863 91.5592C167.68 91.6543 168.073 92.1025 167.975 92.7364C167.926 93.0443 167.906 93.1983 167.857 93.5062C167.758 94.1582 167.261 94.4661 166.469 94.371C165.622 94.2714 165.194 94.2216 164.347 94.1356C164.16 94.1174 164.057 94.1854 164.037 94.3393C163.929 95.2404 163.88 95.6932 163.772 96.5942C163.757 96.7301 163.84 96.8161 164.018 96.8342C165.081 96.9429 165.612 97.0017 166.676 97.133C167.424 97.2281 167.793 97.6673 167.694 98.3013C167.645 98.6092 167.621 98.7631 167.571 99.071C167.468 99.723 166.991 100.031 166.262 99.9404L166.267 99.9449ZM184.479 190.146C183.755 190.34 183.396 190.435 182.667 190.621C180.984 191.047 180.068 189.774 179.852 184.454C179.65 180.293 179.448 176.136 179.242 171.975C179.197 171.522 179.153 171.414 179.025 171.427C177.543 171.59 176.805 171.667 175.314 171.812C175.225 171.821 175.137 171.943 175.137 172.414C174.915 176.734 174.698 181.054 174.477 185.373C174.255 190.915 173.34 192.622 171.622 192.894C170.884 193.012 170.515 193.066 169.771 193.175C168.27 193.392 167.301 191.459 167.301 186.523C167.301 185.799 167.345 185.074 167.389 184.345C168.526 161.973 169.673 139.605 170.83 117.232C171.096 111.912 172.37 109.49 174.388 109.857C176.613 110.259 177.726 110.486 179.931 110.993C181.929 111.45 183.219 114.262 183.479 119.333C184.562 139.963 185.665 160.587 186.787 181.217C186.831 181.968 186.871 182.503 186.871 183.159C186.871 187.624 185.931 189.756 184.469 190.15L184.479 190.146ZM183.386 103.531C180.836 102.811 179.222 101.321 180.054 98.3737C180.674 96.1822 180.979 95.0819 181.599 92.8904C182.436 89.9246 184.912 89.3767 187.821 90.1917C190.73 91.0113 192.457 92.741 191.355 95.6162C190.533 97.7534 190.124 98.822 189.302 100.955C188.19 103.843 185.936 104.246 183.386 103.531ZM202.282 178.903C202.282 182.063 201.509 184.178 200.111 184.771C196.671 186.224 194.923 186.886 191.389 188.063C189.74 188.615 188.844 186.523 188.844 182.448C188.844 161.534 188.844 140.619 188.844 119.705C188.844 115.63 189.74 113.646 191.389 114.194C192.083 114.425 192.428 114.543 193.117 114.783C194.761 115.358 195.632 117.808 195.632 121.634C195.632 138.007 195.632 154.38 195.632 170.753C195.632 171.459 195.799 171.826 196.134 171.749C197.734 171.391 198.531 171.205 200.111 170.811C201.509 170.467 202.282 172.115 202.282 175.181V178.898V178.903ZM202.424 109.318C201.863 110.078 201.312 110.092 200.52 109.725C200.175 109.567 200.008 109.49 199.663 109.331C198.969 109.014 198.674 108.521 199.048 107.805C199.102 107.701 199.176 107.606 199.255 107.507C201.952 103.871 203.335 102.068 206.165 98.505C206.726 97.7896 207.607 97.7126 208.666 98.2243C209.837 98.7857 210.418 99.0755 211.574 99.6687C212.623 100.208 213.066 100.941 212.726 101.765C211.043 105.899 210.167 107.95 208.341 112.021C208.287 112.148 208.252 112.243 208.183 112.342C207.735 113.026 207.12 113.062 206.446 112.7C206.111 112.519 205.944 112.433 205.609 112.256C204.831 111.844 204.546 111.414 204.925 110.563C205.264 109.757 205.432 109.354 205.762 108.548C205.781 108.471 205.771 108.444 205.707 108.412C205.004 108.054 204.649 107.878 203.935 107.534C203.896 107.516 203.842 107.511 203.803 107.579C203.246 108.272 202.966 108.62 202.415 109.318H202.424ZM217.161 132.84C217.161 135.231 216.442 136.291 215.173 135.842C213.376 135.204 212.46 134.896 210.62 134.307C210.305 134.208 210.147 134.484 210.147 135.14V143.662C210.147 144.319 210.305 144.581 210.62 144.622C212.052 144.798 212.761 144.889 214.168 145.079C215.483 145.256 216.206 146.795 216.206 149.172V152.052C216.206 154.497 215.483 155.951 214.168 156.1C212.761 156.259 212.052 156.336 210.62 156.481C210.305 156.512 210.147 156.856 210.147 157.513V167.099C210.147 167.674 210.305 167.95 210.62 167.85C212.46 167.262 213.371 166.954 215.173 166.315C216.442 165.867 217.161 166.999 217.161 169.317V172.129C217.161 174.52 216.442 176.317 215.173 177.087C211.619 179.238 209.798 180.234 206.086 182.05C204.561 182.797 203.704 181.18 203.704 177.721V124.445C203.704 120.986 204.561 119.456 206.086 120.203C209.798 122.019 211.619 123.006 215.173 125.152C216.442 125.917 217.161 127.715 217.161 130.105V132.845V132.84ZM217.771 114.932C217.752 114.959 217.742 114.969 217.722 114.996C216.147 116.988 213.711 117.106 211.181 115.571C210.447 115.127 209.807 114.688 209.187 114.135C208.72 113.719 208.606 113.302 208.902 112.854C209.109 112.542 209.212 112.388 209.419 112.075C209.739 111.595 210.25 111.496 210.831 111.831C211.604 112.274 211.988 112.505 212.751 112.967C213.607 113.483 214.124 113.366 214.434 112.949C214.449 112.931 214.454 112.922 214.469 112.899C214.73 112.546 214.784 112.274 214.547 111.591C214.198 110.604 214.016 110.11 213.637 109.123C213.056 107.561 212.977 106.388 213.735 105.247C213.755 105.22 213.76 105.206 213.78 105.179C215.143 103.128 217.86 102.874 220.685 104.631C221.473 105.12 222.201 105.664 222.88 106.289C223.427 106.791 223.515 107.23 223.166 107.67C222.935 107.964 222.816 108.113 222.585 108.408C222.226 108.865 221.694 108.892 221.084 108.489C220.267 107.955 219.853 107.692 219.026 107.176C218.214 106.669 217.648 106.773 217.373 107.162C217.358 107.181 217.353 107.19 217.338 107.212C217.092 107.552 217.107 107.792 217.353 108.457C217.722 109.472 217.899 109.979 218.239 110.993C218.78 112.569 218.633 113.823 217.766 114.923L217.771 114.932ZM232.277 157.056C232.07 162.358 229.018 167.533 224.839 170.906C223.525 171.971 222.177 172.767 220.843 173.152C219.819 173.451 219.273 172.745 219.273 170.952C219.273 169.702 219.273 169.082 219.273 167.832C219.273 165.908 219.873 164.549 220.951 164.11C222.378 163.531 223.082 163.236 224.475 162.625C226.031 161.941 226.562 160.71 226.562 159.374V159.22C226.562 158.088 226.385 157.517 225.489 156.476C224.18 154.977 223.515 154.103 222.177 152.134C220.08 148.991 218.977 145.346 218.977 140.728V140.461C219.243 137.912 220.656 127.054 226.744 132.736C227.852 133.773 229.255 134.977 230.5 136.363C231.494 137.472 231.942 138.464 231.942 139.546V141.362C231.942 142.48 231.401 142.811 230.396 142.304C229.058 141.624 228.373 141.298 226.995 140.655C225.647 140.026 225.061 140.814 225.061 142.127V142.29C225.061 143.44 225.277 144.088 226.139 145.441C227.443 147.511 228.083 148.43 229.353 150.015C231.341 152.464 232.282 154.257 232.282 156.902V157.051L232.277 157.056ZM234.807 123.712C234.467 124.486 233.611 125.283 232.227 125.193L230.544 125.079L229.919 126.519C229.402 127.701 228.25 128.059 227.345 128.004C226.439 127.946 225.351 127.443 225.017 126.207L224.613 124.704L222.93 124.599C221.547 124.513 220.818 123.617 220.602 122.806C220.38 121.996 220.567 120.891 221.743 120.216L223.176 119.397L222.762 117.894C222.423 116.657 223.127 115.743 223.894 115.299C224.278 115.077 224.766 114.923 225.292 114.923C225.819 114.923 226.395 115.082 226.926 115.498L228.216 116.499L229.643 115.675C230.815 114.996 231.976 115.331 232.675 115.865C233.369 116.404 233.93 117.396 233.409 118.577L232.774 120.013L234.068 121.004C235.131 121.819 235.146 122.942 234.807 123.716V123.712Z" fill="white"/>
<path d="M196.356 99.8543C197.143 100.153 197.714 100.067 198.019 99.406C198.315 98.7721 198.462 98.4551 198.757 97.8212C199.013 97.2688 198.762 96.8704 198.044 96.5941C197.837 96.5126 197.512 96.4221 197.305 96.3587C197.123 96.2998 197 96.3089 196.941 96.4493C196.429 97.6084 196.173 98.1834 195.662 99.3426C195.598 99.4875 195.657 99.5916 195.834 99.6596C196.041 99.7365 196.144 99.7773 196.351 99.8543H196.356Z" fill="white"/>
<path d="M227.798 118.138C226.921 118.138 226.095 118.455 225.474 119.026C224.195 120.203 224.195 122.123 225.474 123.305C226.114 123.893 226.956 124.187 227.798 124.187C228.639 124.187 229.481 123.893 230.121 123.305C231.4 122.127 231.4 120.207 230.121 119.026C229.501 118.455 228.674 118.138 227.798 118.138Z" fill="white"/>
<path d="M153.086 96.3634C153.278 96.377 153.563 96.3906 153.794 96.3951C154.523 96.4087 154.897 96.1461 154.917 95.5257C154.995 92.9176 155.035 91.6181 155.114 89.0101C155.133 88.3716 154.744 88.1045 153.957 88.0909C153.711 88.0909 153.411 88.0818 153.189 88.0999C152.992 88.1181 152.894 88.1543 152.889 88.3309C152.859 91.4506 152.84 93.0082 152.81 96.1279C152.81 96.3 152.909 96.3498 153.081 96.3634H153.086Z" fill="white"/>
<path d="M120.064 95.4941C120.108 95.6435 120.226 95.6933 120.413 95.648C120.625 95.5937 120.733 95.5665 120.945 95.5122C121.757 95.3084 122.141 94.9145 121.944 94.2217C121.752 93.5561 121.658 93.221 121.466 92.5509C121.299 91.9668 120.841 91.7993 120.093 91.9849C119.877 92.0393 119.567 92.1479 119.36 92.2113C119.178 92.2656 119.089 92.3426 119.133 92.492C119.503 93.6965 119.69 94.2942 120.059 95.4986L120.064 95.4941Z" fill="white"/>
<path d="M177.46 126.171C177.415 125.587 177.371 125.464 177.243 125.446C177.189 125.437 177.164 125.437 177.11 125.428C176.982 125.41 176.938 125.523 176.894 126.098C176.485 135.534 176.077 144.966 175.668 154.402C175.624 155.57 175.624 155.919 175.624 156.037C175.624 156.503 175.712 156.616 175.801 156.616C176.918 156.589 177.479 156.571 178.592 156.539C178.68 156.539 178.72 156.422 178.72 155.96C178.72 155.847 178.72 155.503 178.675 154.352C178.267 144.957 177.858 135.566 177.455 126.171H177.46Z" fill="white"/>
<path d="M186.92 92.8994C186.25 92.7092 185.748 92.8179 185.537 93.488C184.744 95.9603 184.346 97.1964 183.553 99.6641C183.337 100.334 183.671 100.647 184.287 100.819C184.902 100.991 185.399 100.896 185.62 100.248C186.467 97.7941 186.89 96.5625 187.732 94.1083C187.963 93.4427 187.584 93.0895 186.92 92.8994Z" fill="white"/>
<path d="M206.825 106.094C206.869 106.116 206.899 106.107 206.938 106.039C206.948 106.021 206.977 105.971 207.061 105.79C207.814 104.011 208.183 103.119 208.912 101.326C208.941 101.231 208.926 101.199 208.862 101.167C208.833 101.154 208.823 101.149 208.794 101.136C208.725 101.104 208.695 101.108 208.621 101.181C207.396 102.725 206.79 103.499 205.584 105.057C205.461 105.22 205.432 105.27 205.422 105.288C205.383 105.356 205.417 105.396 205.456 105.415C206.003 105.682 206.278 105.818 206.82 106.094H206.825Z" fill="white"/>
<path d="M114.172 128.285C113.832 128.349 113.365 128.57 113.025 128.72C112.754 128.838 112.518 129.136 112.518 129.979V149.24C112.518 149.978 112.705 150.354 113.025 150.395C113.36 150.44 113.832 150.603 114.172 150.603C115.575 150.599 116.259 149.077 116.259 145.709V132.79C116.259 129.426 115.575 128.023 114.172 128.29V128.285Z" fill="white"/>
<path d="M133.831 125.342C133.786 124.749 133.742 124.631 133.609 124.645C133.555 124.649 133.53 124.654 133.476 124.658C133.343 124.672 133.299 124.794 133.255 125.396C132.846 135.086 132.433 144.776 132.024 154.466C131.98 155.652 131.98 156.005 131.98 156.123C131.98 156.598 132.069 156.721 132.157 156.721C133.284 156.743 133.845 156.757 134.978 156.775C135.066 156.775 135.11 156.657 135.11 156.177C135.11 156.06 135.11 155.697 135.066 154.497C134.658 144.78 134.244 135.064 133.831 125.342Z" fill="white"/>
<path d="M109.407 99.2475C109.462 99.3743 109.565 99.4105 109.762 99.3471C109.959 99.2882 110.205 99.2294 110.387 99.166C111.13 98.9034 111.391 98.5276 111.165 97.9616L110.288 95.7972C110.062 95.2312 109.58 95.1044 108.812 95.3761C108.625 95.444 108.384 95.5527 108.197 95.6387C108.014 95.7248 107.941 95.7927 108 95.9376C108.566 97.2597 108.846 97.9208 109.412 99.243L109.407 99.2475Z" fill="white"/>
<path d="M74.574 123.3C75.8538 122.123 75.8538 120.203 74.574 119.021C73.9539 118.45 73.127 118.134 72.2508 118.134C71.3747 118.134 70.5478 118.45 69.9276 119.021C68.6479 120.198 68.6479 122.118 69.9276 123.3C70.5675 123.889 71.4092 124.183 72.2508 124.183C73.0925 124.183 73.9342 123.889 74.574 123.3Z" fill="white"/>
<path d="M172.936 98.2197C173.123 98.265 173.404 98.3238 173.63 98.3646C174.349 98.4959 174.767 98.3012 174.91 97.6945C175.496 95.1452 175.786 93.8684 176.372 91.3146C176.515 90.6898 176.185 90.3637 175.407 90.2189C175.166 90.1736 174.871 90.1192 174.649 90.1011C174.452 90.083 174.344 90.1057 174.31 90.2777C173.67 93.3431 173.355 94.8736 172.715 97.939C172.68 98.111 172.769 98.1744 172.936 98.2152V98.2197Z" fill="white"/>
<path d="M242.057 126.406C243.287 123.603 242.997 120.524 241.417 118.02C241.535 115.132 240.221 112.288 237.706 110.346C235.85 108.915 233.522 108.118 231.13 108.095C231.44 105.664 230.519 103.142 228.423 101.213C227.409 100.28 226.311 99.4513 225.071 98.6771C223.146 97.4817 221.089 96.7165 219.026 96.4176C218.141 95.2132 216.915 94.1627 215.384 93.3749C214.178 92.7545 213.543 92.4421 212.288 91.8399C210.757 91.1019 209.168 90.7215 207.573 90.6989C206.096 89.2545 204.132 88.05 201.666 87.1128C200.018 86.4879 198.442 86.0487 196.858 85.768C196.242 85.6593 195.627 85.605 195.027 85.6004C193.786 84.7039 192.182 83.8889 190.109 83.3048C188.559 82.8701 187.033 82.6482 185.576 82.6482C184.882 82.6482 184.213 82.7116 183.558 82.8067C181.767 81.5977 179.507 80.7374 176.785 80.253C175.88 80.0899 174.073 79.8183 172.164 79.8183H171.977C171.849 79.8183 171.73 79.8319 171.607 79.8364C170.884 79.5738 170.116 79.3791 169.309 79.2749C166.853 78.9716 165.578 78.8402 163.132 78.6455C162.817 78.6184 162.511 78.6093 162.216 78.6093C161.222 78.6093 160.277 78.7452 159.391 78.9897C157.644 78.3874 155.64 78.0705 153.381 78.0479H153.076C152.165 78.0479 150.374 78.0931 148.567 78.4146C148.361 78.4508 148.159 78.5006 147.952 78.5459C147.273 78.4101 146.569 78.3286 145.836 78.3286C145.663 78.3286 145.491 78.3286 145.314 78.3422C144.915 78.3603 144.713 78.3693 144.32 78.392C143.32 78.4418 142.365 78.6229 141.475 78.9172C140.884 78.8176 140.274 78.7633 139.653 78.7633C139.274 78.7633 138.886 78.7814 138.502 78.8176C137.729 78.8901 137.345 78.9308 136.567 79.0123C135.809 79.0938 135.091 79.2568 134.402 79.4742C134.165 79.456 133.929 79.447 133.693 79.447C133.201 79.447 132.694 79.4832 132.197 79.5511C129.75 79.8907 128.49 80.0945 126.059 80.5427C124.784 80.7782 123.612 81.2174 122.589 81.8332C122.239 81.806 121.885 81.7924 121.521 81.7924C119.995 81.7924 118.346 82.0188 116.623 82.4581C114.91 82.8973 113.38 83.4406 111.952 84.1153C111.381 84.3869 110.855 84.6994 110.372 85.0435C108.497 85.0661 106.494 85.451 104.402 86.1981C102.777 86.7777 101.276 87.475 99.9374 88.2628C99.7454 88.376 99.5633 88.4983 99.3861 88.6206C98.4952 88.7564 97.6142 88.9918 96.7528 89.3631C95.7143 89.8069 95.1975 90.0333 94.1737 90.4951C93.0957 90.9841 92.1507 91.5999 91.3681 92.3153C90.2656 92.5055 89.1827 92.8723 88.1245 93.4156C87.1056 93.9363 86.6035 94.2035 85.5945 94.7468C84.9104 95.1181 84.2951 95.5528 83.7438 96.0328C83.0301 96.2592 82.3361 96.5671 81.6716 96.9519C79.501 98.2197 78.3985 98.9035 76.2918 100.271C74.1261 101.679 72.7135 103.689 72.3099 105.935C72.1869 106.628 72.1721 107.325 72.241 108.014C71.4289 107.823 70.597 107.719 69.7554 107.719C67.8013 107.719 65.8866 108.226 64.2131 109.191C61.4273 110.794 59.6996 113.443 59.3797 116.318C57.4404 118.591 56.6824 121.606 57.4798 124.536C58.2771 127.47 60.4822 129.802 63.3567 130.97C64.0015 131.853 64.8038 132.627 65.7193 133.261C64.2771 135.299 63.4896 137.653 63.4896 140.031V162.104C63.4896 165.554 65.1336 168.946 67.9982 171.409C71.3698 174.307 73.186 175.724 76.8234 178.301C78.0589 179.174 79.2746 179.645 80.3525 179.894C81.1794 180.981 82.1885 181.9 83.3747 182.629C83.9801 183.001 84.2803 183.186 84.8956 183.548C86.4264 184.459 88.1294 184.957 89.8423 184.988C90.8267 186.342 92.1901 187.592 94.0802 188.511C95.2959 189.104 95.9308 189.403 97.1515 189.955C98.4706 190.558 99.8586 190.861 101.276 190.861C101.355 190.861 101.444 190.861 101.532 190.861C102.733 192.106 104.082 192.871 105.347 193.342C106.1 193.623 106.474 193.759 107.232 194.031C108.31 194.411 109.422 194.606 110.549 194.606C111.819 194.606 114.684 194.32 116.987 192.07C118.292 195.806 120.782 198.083 124.444 198.844C125.227 199.007 125.621 199.084 126.403 199.233C127.083 199.364 127.767 199.428 128.441 199.428C129.731 199.428 131.158 199.165 132.516 198.549C133.9 199.808 135.77 200.709 138.295 200.963C139.092 201.044 139.491 201.081 140.283 201.148C140.569 201.176 140.854 201.185 141.14 201.185C142.06 201.185 143.05 201.04 144.034 200.736C145.496 201.379 146.909 201.561 147.898 201.588C148.597 201.606 148.946 201.615 149.64 201.624C149.68 201.624 149.749 201.624 149.788 201.624C150.802 201.624 152.756 201.456 154.705 200.365C156.093 201.058 157.663 201.434 159.322 201.434C159.524 201.434 159.726 201.429 159.927 201.416C161.266 201.343 161.936 201.298 163.274 201.194C164.278 201.117 165.73 200.854 167.212 200.075C168.014 200.275 168.812 200.374 169.565 200.374C170.037 200.374 170.52 200.338 170.987 200.275C171.78 200.161 172.178 200.103 172.961 199.976C175.456 199.582 177.278 198.572 178.602 197.236C179.783 197.689 180.999 197.888 182.111 197.888C182.982 197.888 183.868 197.775 184.739 197.553C185.517 197.359 185.901 197.254 186.674 197.046C188.032 196.679 189.214 196.104 190.228 195.317C190.464 195.33 190.685 195.339 190.887 195.339C191.96 195.339 193.023 195.163 194.052 194.818C197.817 193.56 199.737 192.835 203.374 191.3C204.364 190.884 205.412 190.263 206.377 189.358C207.538 189.24 208.675 188.923 209.763 188.389C213.73 186.446 215.724 185.355 219.474 183.082C220.734 182.317 221.793 181.33 222.634 180.157C222.826 180.112 223.018 180.066 223.21 180.012C225.504 179.342 227.788 178.097 229.998 176.313C236.042 171.432 239.812 164.332 240.088 157.314C240.088 157.228 240.093 156.902 240.093 156.902C240.093 152.953 238.739 150.033 237.031 147.579C238.651 146.166 239.753 144.074 239.753 141.357V139.551C239.753 136.793 238.665 134.185 236.529 131.794C236.49 131.749 236.446 131.708 236.406 131.663C238.926 130.703 240.984 128.842 242.052 126.402L242.057 126.406ZM195.386 92.8406C196.355 93.0126 197.429 93.2934 198.689 93.7733C201.642 94.8917 203.827 96.6621 202.483 99.2974C202.198 99.8543 202.06 100.131 201.775 100.683C201.164 101.878 200.057 102.612 198.536 102.494C198.565 104.319 198.561 105.224 198.526 107.036C198.526 107.334 198.467 107.547 198.378 107.724C198.098 108.267 197.492 108.367 196.897 108.118C196.523 107.959 196.341 107.882 195.967 107.728C195.159 107.398 194.879 106.95 194.933 106.144C195.027 104.577 195.066 103.789 195.115 102.213C195.115 102.105 195.105 102.064 195.061 102.046C194.894 101.982 194.81 101.951 194.643 101.887C194.579 101.86 194.539 101.887 194.524 101.924C193.929 103.273 193.629 103.952 193.028 105.301C192.728 105.985 192.113 106.212 191.291 105.917C190.946 105.795 190.774 105.732 190.429 105.609C189.607 105.32 189.322 104.772 189.602 104.079C191.271 99.9132 192.103 97.8303 193.771 93.6647C194.042 92.99 194.446 92.6685 195.386 92.8315V92.8406ZM172.05 87.0177C173.025 87.0086 174.246 87.1309 175.294 87.321C178.661 87.9233 181.117 89.2545 180.231 92.5508C179.64 94.7559 179.34 95.8607 178.749 98.0703C177.863 101.367 175.353 101.539 172.4 101.013C171.479 100.85 170.441 100.588 169.639 100.316C168.861 100.054 168.698 99.6053 168.822 98.8763C169.555 94.5748 169.924 92.424 170.657 88.127C170.781 87.4161 171.1 87.0267 172.055 87.0177H172.05ZM150.044 85.4827C150.999 85.3152 152.219 85.2337 153.283 85.2473C156.699 85.2835 159.356 86.1891 159.125 89.5805C158.973 91.849 158.894 92.9855 158.741 95.254C158.515 98.6408 156.093 99.2295 153.096 99.1933C152.16 99.1842 151.092 99.0982 150.251 98.9623C149.434 98.831 149.192 98.419 149.173 97.6809C149.059 93.3296 149.005 91.1517 148.892 86.8003C148.872 86.0849 149.114 85.6457 150.044 85.4827ZM150.733 105.686C152.219 105.686 152.968 105.89 154.306 106.166L155.055 106.37C156.467 106.646 157.142 106.85 157.959 106.85C160.267 106.85 160.936 106.094 162.201 106.094C163.097 106.094 163.988 106.438 163.988 107.805V109.861C163.988 110.753 163.914 111.301 163.319 111.849C162.502 112.605 161.01 112.945 159.671 112.945C158.259 112.945 157.437 112.736 156.098 112.465L155.35 112.256C153.937 111.912 153.337 111.776 152.446 111.776C150.211 111.776 149.468 112.533 148.203 112.533C147.307 112.533 146.416 112.188 146.416 110.821V108.765C146.416 107.873 146.569 107.257 147.16 106.71C147.977 106.021 149.394 105.682 150.733 105.682V105.686ZM127.589 87.6018C129.888 87.1761 131.045 86.9905 133.358 86.669C134.185 86.5558 134.717 86.8592 134.82 87.5112C134.864 87.8101 134.889 87.9595 134.933 88.2628C135.032 88.9149 134.623 89.3405 133.816 89.4537C132.674 89.6122 132.103 89.6982 130.961 89.8838C130.764 89.9155 130.685 90.0061 130.715 90.16C130.868 90.9524 130.946 91.3509 131.104 92.1478C131.133 92.3018 131.242 92.3425 131.429 92.3108C132.295 92.1704 132.728 92.1025 133.599 91.9803C134.411 91.8625 134.928 92.1886 135.027 92.8225C135.076 93.1304 135.101 93.2843 135.15 93.5922C135.253 94.2442 134.869 94.6653 134.077 94.7831C133.23 94.9053 132.807 94.9687 131.965 95.1045C131.778 95.1362 131.699 95.2268 131.729 95.3807C131.901 96.2727 131.99 96.721 132.162 97.613C132.187 97.7488 132.295 97.8077 132.472 97.7805C133.53 97.6085 134.057 97.5315 135.12 97.3821C135.868 97.2779 136.361 97.6085 136.454 98.2424C136.498 98.5503 136.523 98.7042 136.572 99.0121C136.671 99.6642 136.306 100.081 135.583 100.185C133.545 100.47 132.531 100.633 130.508 101.004C129.676 101.158 129.12 100.832 128.953 100.112C127.924 95.6751 127.407 93.4518 126.379 89.0145C126.211 88.2945 126.64 87.7919 127.585 87.6154L127.589 87.6018ZM115.511 90.5223C116.387 90.1102 117.411 89.7299 118.715 89.3948C121.767 88.6115 124.626 88.779 125.33 91.618C125.478 92.2157 125.552 92.5146 125.699 93.1123C126.019 94.3982 125.65 95.6026 124.395 96.3678C125.626 97.7896 126.226 98.5095 127.398 99.9585C127.594 100.194 127.693 100.393 127.737 100.583C127.88 101.172 127.481 101.589 126.851 101.729C126.457 101.815 126.265 101.856 125.872 101.946C125.025 102.136 124.508 101.946 124.016 101.281C123.046 99.9902 122.554 99.3472 121.55 98.0749C121.476 97.9934 121.442 97.9617 121.398 97.9707C121.225 98.016 121.142 98.0386 120.969 98.0794C120.9 98.0975 120.891 98.1382 120.9 98.179C121.334 99.5827 121.55 100.284 121.983 101.688C122.2 102.399 121.875 102.924 121.038 103.151C120.684 103.246 120.512 103.296 120.157 103.395C119.32 103.631 118.73 103.359 118.484 102.657C117.012 98.428 116.279 96.3135 114.812 92.0889C114.576 91.4052 114.674 90.9207 115.526 90.5223H115.511ZM104.156 94.3212C104.987 93.8277 106.001 93.3432 107.222 92.9085C110.146 91.8625 113.035 91.781 114.034 94.5431C114.364 95.4487 114.526 95.9015 114.856 96.807C115.86 99.5691 113.798 100.964 111.711 101.693C111.381 101.806 110.992 101.905 110.574 101.992C111.061 103.133 111.307 103.703 111.795 104.844C112.09 105.528 111.814 106.085 111.022 106.384C110.672 106.515 110.495 106.583 110.146 106.719C109.334 107.031 108.713 106.814 108.393 106.139C106.479 102.064 105.524 100.026 103.609 95.9513C103.299 95.2902 103.348 94.8012 104.161 94.3212H104.156ZM69.4699 126.207L69.0663 124.704L67.3829 124.599C65.9998 124.513 65.2714 123.617 65.0548 122.806C64.8333 121.996 65.0203 120.891 66.1967 120.216L67.629 119.397L67.2156 117.894C66.876 116.657 67.5798 115.743 68.3477 115.299C68.7316 115.077 69.2189 114.923 69.7455 114.923C70.2722 114.923 70.8481 115.082 71.3796 115.498L72.6692 116.499L74.0966 115.675C75.2681 114.996 76.4297 115.331 77.1286 115.865C77.8226 116.404 78.3837 117.396 77.862 118.577L77.227 120.013L78.5215 121.004C79.5847 121.819 79.5995 122.942 79.2598 123.716C78.9202 124.491 78.0638 125.288 76.6807 125.197L74.9973 125.084L74.3723 126.524C73.8554 127.706 72.7037 128.063 71.798 128.009C70.8924 127.95 69.8046 127.447 69.4699 126.211V126.207ZM83.5076 134.239C83.5076 136.444 82.7939 137.957 81.5781 138.459C79.8505 139.175 79.0039 139.546 77.3304 140.311C77.0449 140.443 76.9022 140.714 76.9022 141.122V146.442C76.9022 146.85 77.0449 146.981 77.3304 146.927C78.6347 146.696 79.2894 146.587 80.6233 146.37C81.8685 146.166 82.5773 147.321 82.5773 149.399V151.921C82.5773 154.067 81.8685 155.172 80.6233 155C79.2894 154.819 78.6298 154.724 77.3304 154.534C77.0449 154.493 76.9022 154.674 76.9022 155.086V161.072C76.9022 161.43 77.0449 161.701 77.3304 161.833C79.0039 162.598 79.8554 162.969 81.5781 163.684C82.7939 164.192 83.5076 165.763 83.5076 167.904V170.499C83.5076 172.704 82.7939 173.46 81.5781 172.6C78.1721 170.187 76.5133 168.896 73.3189 166.148C72.0047 165.016 71.296 163.535 71.296 162.104V140.031C71.296 138.595 72.0047 137.155 73.3189 136.028C76.5183 133.289 78.1721 132.003 81.5781 129.594C82.7939 128.733 83.5076 129.494 83.5076 131.699V134.23V134.239ZM80.259 107.919C79.7865 107.321 79.9785 106.687 80.8005 106.153C82.7988 104.853 83.8127 104.228 85.8603 103.028C86.5937 102.598 87.2287 102.675 87.6077 103.232C87.7799 103.49 87.8685 103.617 88.0408 103.875C88.4198 104.437 88.2131 104.984 87.4994 105.401C86.4854 105.994 85.9834 106.298 84.9842 106.913C84.8119 107.017 84.7775 107.135 84.871 107.267C85.3632 107.937 85.6093 108.272 86.0966 108.937C86.1901 109.064 86.3082 109.06 86.4756 108.96C87.2336 108.489 87.6175 108.258 88.3853 107.805C89.104 107.38 89.7291 107.479 90.0982 108.023C90.2754 108.285 90.3689 108.417 90.5461 108.679C90.9251 109.236 90.7479 109.775 90.049 110.187C89.3008 110.631 88.9268 110.853 88.1884 111.31C88.026 111.41 87.9916 111.527 88.0851 111.654C88.6364 112.406 88.912 112.782 89.4682 113.538C89.5519 113.651 89.6749 113.664 89.8373 113.565C90.7627 112.994 91.2303 112.714 92.1704 112.161C92.8299 111.772 93.4403 111.885 93.8045 112.433C93.9817 112.696 94.0703 112.827 94.2475 113.094C94.6265 113.655 94.4641 114.181 93.8193 114.556C92.0178 115.611 91.1269 116.159 89.3698 117.305C88.6462 117.776 87.9768 117.699 87.5092 117.101C84.6101 113.429 83.1581 111.591 80.259 107.919ZM103.048 178.889C103.048 182.502 102.182 184.237 100.597 183.512C99.4403 182.987 98.8644 182.715 97.7225 182.163C96.1523 181.398 95.2418 179.632 94.9661 176.308C93.9916 165.917 92.9924 155.53 91.9292 145.147C91.8898 144.676 91.8111 144.604 91.693 144.622C91.6782 144.622 91.6683 144.622 91.6536 144.626C91.5748 144.635 91.4961 144.726 91.4961 144.961V174.158C91.4961 177.155 90.6347 178.414 89.1286 177.517C88.5576 177.178 88.2721 177.006 87.7061 176.657C86.2885 175.783 85.501 173.755 85.501 171.146V131.006C85.501 128.398 86.2541 126.46 87.7455 125.546C88.848 124.871 89.4042 124.541 90.5264 123.893C92.003 123.042 92.9136 123.757 93.2286 126.714C94.3016 136.97 95.3057 147.235 96.2852 157.495C96.3246 157.929 96.364 158.192 96.487 158.206C96.5363 158.21 96.5609 158.215 96.6052 158.219C96.6839 158.228 96.7233 158.147 96.7233 157.889V125.691C96.7233 122.394 97.56 120.144 99.14 119.401C99.7405 119.121 100.041 118.98 100.641 118.709C102.147 118.029 103.053 119.646 103.053 123.259V178.885L103.048 178.889ZM103.737 108.109C102.33 105.46 101.626 104.133 100.218 101.484C100.188 101.435 100.134 101.435 100.07 101.466C100.06 101.466 100.056 101.471 100.051 101.475C99.9817 101.507 99.9817 101.552 99.9915 101.675C100.454 103.368 100.695 104.21 101.188 105.895C101.365 106.465 101.153 106.8 100.607 107.058C100.051 107.321 99.775 107.452 99.2237 107.724C98.6823 107.991 98.259 107.959 97.8504 107.502C96.6199 106.175 95.9948 105.519 94.7397 104.206C94.656 104.115 94.6167 104.092 94.5477 104.124C94.5281 104.133 94.5231 104.138 94.5034 104.147C94.4591 104.169 94.4247 104.21 94.4592 104.26C96.0244 106.832 96.807 108.118 98.3722 110.694C98.761 111.337 98.5887 111.912 97.7914 112.338C97.4961 112.496 97.3484 112.573 97.058 112.732C96.2852 113.148 95.6306 113.017 95.2171 112.388C92.6675 108.507 91.3927 106.569 88.848 102.689C88.4247 102.041 88.6856 101.416 89.542 100.955C90.487 100.443 90.9645 100.194 91.9194 99.7004C92.6921 99.3019 93.5338 99.1706 94.0703 99.7864C95.67 101.602 96.4575 102.517 98.0178 104.36C98.0965 104.45 98.131 104.459 98.195 104.428C98.2196 104.414 98.2344 104.409 98.259 104.396C98.323 104.364 98.3377 104.337 98.2984 104.224C97.5404 101.996 97.1761 100.878 96.4624 98.6318C96.1917 97.8892 96.8119 97.3142 97.5994 96.9565C98.5641 96.5173 99.0514 96.3044 100.026 95.8879C100.917 95.5075 101.616 95.666 101.955 96.3588C103.973 100.493 104.983 102.562 106.996 106.696C107.325 107.366 107.06 107.946 106.272 108.276C105.967 108.408 105.814 108.471 105.509 108.607C104.707 108.955 104.077 108.77 103.722 108.104L103.737 108.109ZM123.199 145.672C123.022 150.784 123.416 166.691 114.644 166.025C114.034 165.98 113.286 165.641 112.523 165.228V181.855C112.523 185.853 111.632 187.886 110.033 187.316C109.329 187.067 108.974 186.935 108.27 186.677C106.641 186.071 105.77 183.553 105.77 179.817V123.603C105.77 119.967 106.183 117.64 107.724 116.273C109.299 114.878 111.199 113.696 113.32 112.967C123.342 109.512 123.022 127.601 123.194 131.677V145.668L123.199 145.672ZM140.997 193.994C140.254 193.931 139.88 193.895 139.137 193.822C137.409 193.65 136.479 191.957 136.257 186.279C136.05 181.855 135.844 177.427 135.637 173.003C135.593 172.518 135.548 172.396 135.416 172.387C133.914 172.288 133.166 172.233 131.67 172.111C131.581 172.102 131.493 172.215 131.493 172.69C131.271 177.001 131.055 181.312 130.833 185.622C130.612 191.142 129.691 192.523 127.983 192.197C127.25 192.056 126.881 191.984 126.147 191.83C124.666 191.522 123.711 189.358 123.711 184.68C123.711 183.997 123.755 183.318 123.8 182.643C124.946 161.104 126.078 139.56 127.196 118.016C127.457 112.745 128.722 109.92 130.745 109.58C132.974 109.204 134.096 109.041 136.341 108.765C138.374 108.516 139.708 111.065 139.973 116.513C141.12 139.302 142.257 162.091 143.394 184.88C143.438 185.74 143.483 186.351 143.483 187.085C143.483 192.097 142.503 194.117 140.997 193.99V193.994ZM143.212 98.3329C142.272 95.4894 141.78 94.0722 140.746 91.2467C140.712 91.1336 140.662 91.1154 140.589 91.1245C140.579 91.1245 140.574 91.1245 140.564 91.1245C140.515 91.1245 140.47 91.1517 140.475 91.2105C140.776 94.0676 140.928 95.4985 141.228 98.3556C141.307 99.0891 140.864 99.5555 139.998 99.6415C139.668 99.6732 139.506 99.6913 139.181 99.7275C138.364 99.8136 137.837 99.4513 137.739 98.7178C137.104 94.2171 136.789 91.9667 136.154 87.4614C136.05 86.7324 136.498 86.266 137.478 86.1574C138.201 86.0804 138.566 86.0442 139.289 85.9762C140.244 85.8857 140.854 86.1302 141.125 86.8501C142.169 89.671 142.666 91.0883 143.616 93.9273C143.645 94.0224 143.675 94.0812 143.744 94.0722C143.773 94.0722 143.788 94.0722 143.813 94.0676C143.857 94.0676 143.881 94.045 143.877 93.9861C143.66 91.1154 143.552 89.6801 143.335 86.8049C143.281 86.0713 143.778 85.6276 144.763 85.5733C145.137 85.5552 145.324 85.5461 145.698 85.528C146.633 85.4872 147.204 85.8766 147.233 86.6102C147.416 91.1471 147.509 93.4156 147.696 97.9526C147.726 98.6907 147.278 99.1299 146.411 99.1706C145.781 99.1978 145.466 99.2159 144.836 99.2521C143.97 99.3019 143.438 99.0529 143.217 98.3284L143.212 98.3329ZM165.278 187.216C165.278 191.386 164.347 193.899 162.62 194.031C161.36 194.13 160.73 194.171 159.465 194.239C157.732 194.334 156.708 192.695 156.398 188.47C155.251 174.583 154.11 160.701 152.968 146.813C152.923 146.143 152.835 146.03 152.702 146.03C152.682 146.03 152.677 146.03 152.658 146.03C152.569 146.03 152.48 146.143 152.48 146.474C152.48 160.234 152.48 173.99 152.48 187.75C152.48 191.988 151.501 194.456 149.763 194.429C149.104 194.42 148.774 194.411 148.114 194.397C146.466 194.352 145.535 191.862 145.535 187.637V122.607C145.535 118.383 146.426 116.001 148.159 115.956C149.443 115.924 150.083 115.915 151.368 115.91C153.061 115.906 154.085 117.599 154.439 121.842C155.581 135.697 156.723 149.548 157.865 163.404C157.909 163.961 157.954 164.291 158.087 164.291C158.141 164.291 158.165 164.291 158.219 164.291C158.308 164.291 158.352 164.178 158.352 163.847V122.621C158.352 118.401 159.288 116.101 161.02 116.214C161.68 116.259 162.004 116.282 162.664 116.331C164.308 116.458 165.278 118.863 165.278 123.033C165.278 144.427 165.278 165.822 165.278 187.212V187.216ZM166.267 99.9449C164.229 99.6913 163.205 99.5872 161.158 99.4242C160.316 99.3563 159.883 98.9035 159.942 98.1654C160.311 93.6375 160.493 91.3735 160.863 86.8456C160.922 86.1121 161.488 85.7363 162.443 85.8132C164.771 85.9989 165.932 86.1166 168.255 86.4064C169.082 86.5105 169.501 86.9407 169.397 87.5927L169.279 88.3398C169.176 88.9918 168.654 89.2907 167.842 89.1911C166.695 89.0507 166.124 88.9828 164.972 88.8696C164.776 88.8515 164.667 88.9194 164.653 89.0733C164.559 89.8748 164.51 90.2778 164.416 91.0792C164.397 91.2332 164.49 91.3011 164.682 91.3192C165.553 91.4097 165.991 91.455 166.863 91.5592C167.68 91.6543 168.073 92.1025 167.975 92.7364C167.926 93.0443 167.906 93.1983 167.857 93.5062C167.758 94.1582 167.261 94.4661 166.469 94.371C165.622 94.2714 165.194 94.2216 164.347 94.1356C164.16 94.1174 164.057 94.1854 164.037 94.3393C163.929 95.2404 163.88 95.6932 163.772 96.5942C163.757 96.7301 163.84 96.8161 164.018 96.8342C165.081 96.9429 165.612 97.0017 166.676 97.133C167.424 97.2281 167.793 97.6673 167.694 98.3013C167.645 98.6092 167.621 98.7631 167.571 99.071C167.468 99.723 166.991 100.031 166.262 99.9404L166.267 99.9449ZM184.479 190.146C183.755 190.34 183.396 190.435 182.667 190.621C180.984 191.047 180.068 189.774 179.852 184.454C179.65 180.293 179.448 176.136 179.242 171.975C179.197 171.522 179.153 171.414 179.025 171.427C177.543 171.59 176.805 171.667 175.314 171.812C175.225 171.821 175.137 171.943 175.137 172.414C174.915 176.734 174.698 181.054 174.477 185.373C174.255 190.915 173.34 192.622 171.622 192.894C170.884 193.012 170.515 193.066 169.771 193.175C168.27 193.392 167.301 191.459 167.301 186.523C167.301 185.799 167.345 185.074 167.389 184.345C168.526 161.973 169.673 139.605 170.83 117.232C171.096 111.912 172.37 109.49 174.388 109.857C176.613 110.259 177.726 110.486 179.931 110.993C181.929 111.45 183.219 114.262 183.479 119.333C184.562 139.963 185.665 160.587 186.787 181.217C186.831 181.968 186.871 182.503 186.871 183.159C186.871 187.624 185.931 189.756 184.469 190.15L184.479 190.146ZM183.386 103.531C180.836 102.811 179.222 101.321 180.054 98.3737C180.674 96.1822 180.979 95.0819 181.599 92.8904C182.436 89.9246 184.912 89.3767 187.821 90.1917C190.73 91.0113 192.457 92.741 191.355 95.6162C190.533 97.7534 190.124 98.822 189.302 100.955C188.19 103.843 185.936 104.246 183.386 103.531ZM202.282 178.903C202.282 182.063 201.509 184.178 200.111 184.771C196.671 186.224 194.923 186.886 191.389 188.063C189.74 188.615 188.844 186.523 188.844 182.448C188.844 161.534 188.844 140.619 188.844 119.705C188.844 115.63 189.74 113.646 191.389 114.194C192.083 114.425 192.428 114.543 193.117 114.783C194.761 115.358 195.632 117.808 195.632 121.634C195.632 138.007 195.632 154.38 195.632 170.753C195.632 171.459 195.799 171.826 196.134 171.749C197.734 171.391 198.531 171.205 200.111 170.811C201.509 170.467 202.282 172.115 202.282 175.181V178.898V178.903ZM202.424 109.318C201.863 110.078 201.312 110.092 200.52 109.725C200.175 109.567 200.008 109.49 199.663 109.331C198.969 109.014 198.674 108.521 199.048 107.805C199.102 107.701 199.176 107.606 199.255 107.507C201.952 103.871 203.335 102.068 206.165 98.505C206.726 97.7896 207.607 97.7126 208.666 98.2243C209.837 98.7857 210.418 99.0755 211.574 99.6687C212.623 100.208 213.066 100.941 212.726 101.765C211.043 105.899 210.167 107.95 208.341 112.021C208.287 112.148 208.252 112.243 208.183 112.342C207.735 113.026 207.12 113.062 206.446 112.7C206.111 112.519 205.944 112.433 205.609 112.256C204.831 111.844 204.546 111.414 204.925 110.563C205.264 109.757 205.432 109.354 205.762 108.548C205.781 108.471 205.771 108.444 205.707 108.412C205.004 108.054 204.649 107.878 203.935 107.534C203.896 107.516 203.842 107.511 203.803 107.579C203.246 108.272 202.966 108.62 202.415 109.318H202.424ZM217.161 132.84C217.161 135.231 216.442 136.291 215.173 135.842C213.376 135.204 212.46 134.896 210.62 134.307C210.305 134.208 210.147 134.484 210.147 135.14V143.662C210.147 144.319 210.305 144.581 210.62 144.622C212.052 144.798 212.761 144.889 214.168 145.079C215.483 145.256 216.206 146.795 216.206 149.172V152.052C216.206 154.497 215.483 155.951 214.168 156.1C212.761 156.259 212.052 156.336 210.62 156.481C210.305 156.512 210.147 156.856 210.147 157.513V167.099C210.147 167.674 210.305 167.95 210.62 167.85C212.46 167.262 213.371 166.954 215.173 166.315C216.442 165.867 217.161 166.999 217.161 169.317V172.129C217.161 174.52 216.442 176.317 215.173 177.087C211.619 179.238 209.798 180.234 206.086 182.05C204.561 182.797 203.704 181.18 203.704 177.721V124.445C203.704 120.986 204.561 119.456 206.086 120.203C209.798 122.019 211.619 123.006 215.173 125.152C216.442 125.917 217.161 127.715 217.161 130.105V132.845V132.84ZM217.771 114.932C217.752 114.959 217.742 114.969 217.722 114.996C216.147 116.988 213.711 117.106 211.181 115.571C210.447 115.127 209.807 114.688 209.187 114.135C208.72 113.719 208.606 113.302 208.902 112.854C209.109 112.542 209.212 112.388 209.419 112.075C209.739 111.595 210.25 111.496 210.831 111.831C211.604 112.274 211.988 112.505 212.751 112.967C213.607 113.483 214.124 113.366 214.434 112.949C214.449 112.931 214.454 112.922 214.469 112.899C214.73 112.546 214.784 112.274 214.547 111.591C214.198 110.604 214.016 110.11 213.637 109.123C213.056 107.561 212.977 106.388 213.735 105.247C213.755 105.22 213.76 105.206 213.78 105.179C215.143 103.128 217.86 102.874 220.685 104.631C221.473 105.12 222.201 105.664 222.88 106.289C223.427 106.791 223.515 107.23 223.166 107.67C222.935 107.964 222.816 108.113 222.585 108.408C222.226 108.865 221.694 108.892 221.084 108.489C220.267 107.955 219.853 107.692 219.026 107.176C218.214 106.669 217.648 106.773 217.373 107.162C217.358 107.181 217.353 107.19 217.338 107.212C217.092 107.552 217.107 107.792 217.353 108.457C217.722 109.472 217.899 109.979 218.239 110.993C218.78 112.569 218.633 113.823 217.766 114.923L217.771 114.932ZM232.277 157.056C232.07 162.358 229.018 167.533 224.839 170.906C223.525 171.971 222.177 172.767 220.843 173.152C219.819 173.451 219.273 172.745 219.273 170.952C219.273 169.702 219.273 169.082 219.273 167.832C219.273 165.908 219.873 164.549 220.951 164.11C222.378 163.531 223.082 163.236 224.475 162.625C226.031 161.941 226.562 160.71 226.562 159.374V159.22C226.562 158.088 226.385 157.517 225.489 156.476C224.18 154.977 223.515 154.103 222.177 152.134C220.08 148.991 218.977 145.346 218.977 140.728V140.461C219.243 137.912 220.656 127.054 226.744 132.736C227.852 133.773 229.255 134.977 230.5 136.363C231.494 137.472 231.942 138.464 231.942 139.546V141.362C231.942 142.48 231.401 142.811 230.396 142.304C229.058 141.624 228.373 141.298 226.995 140.655C225.647 140.026 225.061 140.814 225.061 142.127V142.29C225.061 143.44 225.277 144.088 226.139 145.441C227.443 147.511 228.083 148.43 229.353 150.015C231.341 152.464 232.282 154.257 232.282 156.902V157.051L232.277 157.056ZM234.807 123.712C234.467 124.486 233.611 125.283 232.227 125.193L230.544 125.079L229.919 126.519C229.402 127.701 228.25 128.059 227.345 128.004C226.439 127.946 225.351 127.443 225.017 126.207L224.613 124.704L222.93 124.599C221.547 124.513 220.818 123.617 220.602 122.806C220.38 121.996 220.567 120.891 221.743 120.216L223.176 119.397L222.762 117.894C222.423 116.657 223.127 115.743 223.894 115.299C224.278 115.077 224.766 114.923 225.292 114.923C225.819 114.923 226.395 115.082 226.926 115.498L228.216 116.499L229.643 115.675C230.815 114.996 231.976 115.331 232.675 115.865C233.369 116.404 233.93 117.396 233.409 118.577L232.774 120.013L234.068 121.004C235.131 121.819 235.146 122.942 234.807 123.716V123.712Z" fill="white"/>
<path d="M196.356 99.8543C197.143 100.153 197.714 100.067 198.019 99.406C198.315 98.7721 198.462 98.4551 198.757 97.8212C199.013 97.2688 198.762 96.8704 198.044 96.5941C197.837 96.5126 197.512 96.4221 197.305 96.3587C197.123 96.2998 197 96.3089 196.941 96.4493C196.429 97.6084 196.173 98.1834 195.662 99.3426C195.598 99.4875 195.657 99.5916 195.834 99.6596C196.041 99.7365 196.144 99.7773 196.351 99.8543H196.356Z" fill="white"/>
<path d="M227.798 118.138C226.921 118.138 226.095 118.455 225.474 119.026C224.195 120.203 224.195 122.123 225.474 123.305C226.114 123.893 226.956 124.187 227.798 124.187C228.639 124.187 229.481 123.893 230.121 123.305C231.4 122.127 231.4 120.207 230.121 119.026C229.501 118.455 228.674 118.138 227.798 118.138Z" fill="white"/>
<path d="M153.086 96.3634C153.278 96.377 153.563 96.3906 153.794 96.3951C154.523 96.4087 154.897 96.1461 154.917 95.5257C154.995 92.9176 155.035 91.6181 155.114 89.0101C155.133 88.3716 154.744 88.1045 153.957 88.0909C153.711 88.0909 153.411 88.0818 153.189 88.0999C152.992 88.1181 152.894 88.1543 152.889 88.3309C152.859 91.4506 152.84 93.0082 152.81 96.1279C152.81 96.3 152.909 96.3498 153.081 96.3634H153.086Z" fill="white"/>
</svg>
