<svg width="131" height="94" viewBox="0 0 131 94" fill="none" xmlns="http://www.w3.org/2000/svg">
<path d="M125.9 69.845C124.592 69.845 123.53 70.8005 123.53 71.9811C123.53 73.1616 124.592 74.1132 125.9 74.1132C126.168 74.1132 126.422 74.0658 126.664 73.9908C127.129 72.9681 127.55 71.9376 127.937 70.8953C127.524 70.2675 126.773 69.845 125.905 69.845H125.9Z" fill="white"/>
<path d="M119.26 61.6087C118.509 61.6087 117.772 61.589 117.048 61.5416C114.849 61.4982 112.953 61.1941 111.36 60.6295L111.285 60.5979C111.43 62.6392 111.755 64.6726 112.264 66.6942C112.699 68.7158 113.243 70.6702 113.897 72.5615C114.428 73.8881 114.946 75.0173 115.455 75.9531C115.648 76.3242 115.806 76.648 115.924 76.9323C116.192 77.4337 116.337 77.793 116.359 78.0062C116.381 78.2234 116.394 78.3655 116.394 78.4287C116.394 78.7564 116.297 79.1118 116.104 79.5027C115.573 80.5687 114.621 81.6427 113.243 82.7285C111.891 83.7274 110.403 84.3591 108.784 84.6197C108.156 84.7066 107.55 84.75 106.971 84.75C106.028 84.75 105.145 84.6395 104.325 84.4223C103.043 84.0749 102.029 83.6524 101.279 83.1509C100.915 82.9338 100.568 82.6298 100.23 82.2389C99.8919 81.848 99.4926 81.1847 99.0317 80.2489C97.895 78.1207 96.8461 75.2937 95.8806 71.7718C95.2749 69.3159 94.9765 66.6231 94.9765 63.6895C94.9765 62.884 94.9984 62.047 95.0467 61.1783C95.1915 57.6367 95.6567 53.7752 96.4423 49.5899C97.2279 45.4047 98.5007 41.7169 100.265 38.5227C101.788 35.9602 103.403 34.1203 105.119 33.0147C106.739 31.9724 108.305 31.4512 109.828 31.4512C110.697 31.4077 111.579 31.388 112.475 31.388C115.06 31.388 117.763 31.5499 120.59 31.8776C124.408 32.3119 127.787 33.2674 130.737 34.7441C130.829 34.7954 130.908 34.8507 131 34.902C130.495 31.771 129.635 29.3941 127.686 27.0251C123.083 21.4263 115.823 19.9536 95.8103 20.2181C95.5207 9.32458 83.0959 0.606606 69.0472 0.721109C54.2525 0.839559 41.6434 10.7144 42.9864 22.2712C23.9564 23.4873 17.5706 25.2957 11.4833 30.6378C1.6655 39.2531 0.353237 50.2611 0.146962 52.3024C-0.686916 60.6177 2.09122 68.6092 6.87066 75.3885C6.52833 74.3659 6.21671 73.2366 5.94022 72.0008C5.18973 68.2617 4.81668 64.2107 4.81668 59.8399C4.81668 58.7106 4.84301 57.5695 4.89129 56.4166C5.22923 50.8534 5.89195 46.3878 6.88382 43.0199C7.29637 41.4997 7.78353 40.3073 8.34969 39.4505C8.91585 38.5937 9.71023 37.8712 10.724 37.2829C11.7598 36.6512 13.0282 36.13 14.5292 35.7193C15.7624 35.3719 17.0659 35.1982 18.444 35.1982C18.7337 35.1982 19.0233 35.21 19.313 35.2297H19.4227C20.9193 34.902 22.3676 34.6849 23.772 34.5783C24.7376 34.4914 25.7295 34.448 26.7433 34.448C27.2524 34.448 27.7571 34.4598 28.2662 34.4796C30.1271 34.5467 32.023 34.6651 33.9541 34.8389C35.6438 34.9928 37.1931 35.3166 38.5931 35.8181C40.1643 36.3629 41.5775 37.1644 42.8327 38.2305C43.8466 39.2215 44.5576 40.1928 45.0008 41.1483C45.725 39.49 46.6335 37.8594 47.7614 36.2603C50.1753 32.837 53.3528 30.6378 57.2896 29.6586C58.1366 29.4612 58.931 29.3664 59.6815 29.3664C60.9147 29.3664 62.0953 29.7297 63.232 30.4601C64.3687 31.1866 65.2728 32.3672 65.9487 33.9979C66.6246 35.6285 67.0591 37.3105 67.2522 39.0518C67.4453 40.639 67.5419 42.0091 67.5419 43.158C67.5419 43.2883 67.5287 43.7029 67.5068 44.3978L67.4716 45.4086L67.7964 42.9646C67.9895 41.3576 68.4109 39.4268 69.0648 37.1802C69.7187 34.9297 70.6887 32.7739 71.9834 30.7089C73.2737 28.6439 74.9985 27.1001 77.149 26.0814C78.3077 25.5405 79.6243 25.268 81.099 25.268C82.3542 25.268 83.7191 25.4655 85.1938 25.8563C88.4064 26.879 90.829 29.1651 92.4573 32.7186C94.0899 36.2721 95.073 40.4929 95.411 45.3849C95.5295 47.059 95.5909 48.741 95.5909 50.4388C95.5909 53.7002 95.3188 57.4274 94.7746 61.6206C94.2304 65.8137 93.2868 69.9516 91.9482 74.0223C90.6096 78.097 89.0691 81.0899 87.3267 83.0049C85.1762 85.2199 83.1486 86.5347 81.2394 86.9493C80.5635 87.0993 79.9008 87.1783 79.2469 87.1783C78.1102 87.1783 76.9033 86.8743 75.6217 86.2662C74.3402 85.6582 73.1596 84.7382 72.0711 83.5102C70.9827 82.2823 70.1883 81.1373 69.6792 80.0712C69.3896 79.3961 69.2447 78.6893 69.2447 77.951C69.2447 77.5601 69.3237 76.9639 69.4817 76.1584C69.6397 75.3529 69.9908 74.4093 70.5307 73.3235C71.0749 72.2377 71.6015 71.3454 72.1063 70.6505L72.8655 69.6081C74.7966 66.3704 76.0782 63.3618 76.7058 60.5782C77.2368 58.296 77.5045 56.2547 77.5045 54.4504C77.5045 54.0397 77.4606 53.2106 77.3773 51.9747C77.2939 50.7349 77.0569 49.5188 76.6706 48.3225L76.0913 46.5615C75.8499 52.0379 75.354 56.3377 74.6079 59.4529C73.8574 62.5721 72.9226 64.8424 71.799 66.2638C70.6755 67.6892 69.4203 68.6091 68.029 69.0356C66.6378 69.458 65.1851 69.7265 63.6621 69.8331C63.5393 69.8568 63.4208 69.8647 63.2979 69.8647C62.284 69.8647 61.4677 69.4067 60.8533 68.4946C60.2388 67.5826 59.8087 66.3744 59.5674 64.878C59.326 63.3776 59.2031 61.8693 59.2031 60.3452V59.4648C59.2031 58.3118 59.2382 57.3129 59.3128 56.464L59.4225 54.8689C58.6238 56.0218 58.141 57.7354 57.9742 60.0175C57.8996 61.0836 57.8645 62.1575 57.8645 63.2433C57.8645 64.5029 57.9303 66.0743 58.062 67.9537C58.1937 69.8331 58.3824 71.6533 58.6238 73.4143L58.988 76.0873L58.0444 76.5098C57.4168 76.8138 56.583 77.0981 55.5428 77.3587C54.7923 77.5324 53.9979 77.6193 53.1509 77.6193C52.8349 77.6193 52.2907 77.5877 51.5182 77.5206C50.7458 77.4535 49.7671 77.0547 48.5821 76.3124C47.3971 75.5741 46.3306 74.358 45.3739 72.6602C44.4215 70.9663 43.7017 68.6407 43.219 65.6834C42.6879 62.3786 42.4202 59.22 42.4202 56.1995C42.4202 54.2134 42.6133 51.8207 42.9776 49.0529C42.3017 49.5702 41.5336 49.965 40.6471 50.2019C40.0678 50.3125 39.4972 50.3638 38.9442 50.3638C38.1235 50.3638 37.3379 50.2453 36.5874 50.0045C36.1266 49.8742 35.6921 49.7439 35.284 49.6136C34.6783 49.3965 33.9541 49.1793 33.1115 48.9621C31.7114 48.6581 30.1051 48.5041 28.2925 48.5041H27.3138C25.6944 48.6344 24.2197 48.8753 22.8943 49.2227L22.8197 49.353C22.3588 50.7863 22.1175 52.2314 22.0955 53.6883C22.5081 53.6014 22.9426 53.5264 23.399 53.4593C24.7771 53.1987 26.1903 52.9816 27.6386 52.8078C28.3408 52.721 29.0167 52.6775 29.6663 52.6775C30.2192 52.6775 30.7635 52.7091 31.2945 52.7762C32.5497 52.9302 33.7479 53.2974 34.8802 53.8857C35.9686 54.5372 36.763 55.2321 37.2721 55.9705C37.5135 56.2942 37.6934 56.6061 37.8163 56.8983C37.9348 57.1905 38.0094 57.534 38.0358 57.9249C38.084 58.2092 38.1104 58.5014 38.1104 58.8054C38.1104 59.4134 38.0006 60.0649 37.7856 60.7598C37.3511 61.7824 36.6269 62.5524 35.6131 63.0736C34.7661 63.421 33.9322 63.5947 33.1115 63.5947C32.9403 63.5947 32.7735 63.5829 32.6024 63.5632C32.2381 63.5632 31.8914 63.5434 31.5491 63.496C31.0663 63.4289 30.487 63.3855 29.8111 63.3657H29.596C28.3628 63.3657 26.9891 63.5513 25.4661 63.9185C24.742 64.1357 24.0529 64.3844 23.399 64.6687L23.7633 66.3625C24.0749 67.7326 24.3558 69.0909 24.5971 70.4372C26.458 70.2201 28.038 69.8726 29.3459 69.3949C30.1666 69.1145 30.8556 68.8303 31.413 68.546C31.8256 68.3486 32.2469 68.1669 32.6814 67.9932C33.6469 67.5589 34.7222 67.3417 35.9072 67.3417C36.1486 67.3417 36.4031 67.3536 36.6664 67.3733C38.1894 67.5905 39.4665 68.242 40.5067 69.3278C41.4503 70.4807 42.0384 71.6099 42.2798 72.7194C42.4246 73.2208 42.5036 73.6749 42.5168 74.0895C42.5299 74.5041 42.4641 74.9581 42.3192 75.4595C42.0779 76.569 41.4503 77.7535 40.4364 79.0131C39.348 80.2094 38.0577 81.1531 36.5611 81.848C35.2313 82.4995 33.7347 82.9891 32.0669 83.3128C30.1841 83.7274 28.3233 84.0512 26.4843 84.292C24.9395 84.5289 23.4517 84.6592 22.0297 84.6829C21.6654 84.7027 21.2924 84.7145 20.9061 84.7145C19.5544 84.7145 18.1895 84.6158 16.8114 84.4223C16.4471 84.3789 16.1004 84.3236 15.7624 84.2604L15.0383 84.1933C14.9988 84.1933 14.9637 84.1775 14.9242 84.1736C19.0497 87.6679 23.7062 90.4712 28.49 92.3072C35.7623 95.0987 38.027 93.5983 68.8015 92.7455C104.088 91.7702 106.344 93.5707 112.778 89.8868C117.974 86.9137 121.77 82.7206 124.544 78.0339C122.007 78.9775 119.124 76.8138 120.05 74.2514L120.282 73.6117L119.677 73.2169C117.013 71.4757 118.382 67.6813 121.674 67.6813H122.424L122.657 67.0417C123.675 64.2225 128.108 64.2225 129.126 67.0417L129.161 67.1443C129.89 64.6332 130.425 62.1378 130.82 59.7372C129.025 60.44 126.984 60.9612 124.68 61.281C122.797 61.4982 120.985 61.6087 119.247 61.6087H119.26ZM68.8234 21.067C63.9255 21.2605 59.4971 21.4381 55.477 21.6198C55.1566 14.7378 62.4859 9.45488 69.473 9.42329C76.1396 9.39565 83.1617 14.1534 83.6226 20.5221C79.1723 20.6682 74.2568 20.8538 68.819 21.067H68.8234Z" fill="white"/>
<path d="M117.267 43.1896H117.087C116.605 44.1688 116.06 45.1362 115.455 46.0917C115.068 46.7432 114.695 47.3946 114.331 48.0461C115.538 48.6344 116.543 48.9266 117.338 48.9266C117.482 48.9266 117.627 48.9148 117.772 48.895C119.005 48.8279 120.041 48.4725 120.888 47.8171C121.783 46.9919 122.227 46.1983 122.227 45.4363C122.227 44.6742 121.744 44.1451 120.778 43.774C119.738 43.4265 118.566 43.2331 117.263 43.1857L117.267 43.1896Z" fill="white"/>
<path d="M53.5766 45.8903C54.5817 48.6778 58.9661 48.6778 59.9755 45.8903C63.2321 45.8903 64.5882 42.1394 61.9505 40.4179C62.9556 37.6304 59.4094 35.3127 56.7761 37.0341C54.1384 35.3127 50.5922 37.6304 51.6017 40.4179C48.964 42.1394 50.3201 45.8903 53.5766 45.8903ZM55.4858 40.335C56.4645 39.6953 57.8338 39.8928 58.5448 40.7693C59.2558 41.6498 59.0407 42.8817 58.062 43.5213C57.0833 44.1609 55.714 43.9675 55.003 43.087C54.292 42.2065 54.5071 40.9746 55.4858 40.335Z" fill="white"/>
</svg>
